<svg width="24" height="24" viewBox="0 0 24 24" fill="none" xmlns="http://www.w3.org/2000/svg">
<path d="M20.4713 14.1162C20.4713 18.9893 16.5208 22.9397 11.6477 22.9397C6.77465 22.9397 2.82422 18.9893 2.82422 14.1162" stroke="#1B3A5A" stroke-width="1.2" stroke-linecap="round"/>
<ellipse cx="11.655" cy="4.5872" rx="2.74286" ry="2.82353" stroke="#1B3A5A" stroke-width="1.2" stroke-linecap="round"/>
<path d="M19.5997 5.4933C19.6879 5.2137 20.0836 5.2137 20.1719 5.4933L20.7433 7.30373C20.7827 7.42856 20.8985 7.51343 21.0294 7.51343H22.8967C23.1852 7.51343 23.3074 7.88088 23.0764 8.05367L21.5509 9.1946C21.4488 9.27097 21.4061 9.40355 21.4445 9.52514L22.0236 11.36C22.1113 11.6379 21.7912 11.865 21.5578 11.6905L20.0654 10.5743C19.9589 10.4947 19.8126 10.4947 19.7061 10.5743L18.2137 11.6905C17.9803 11.865 17.6602 11.6379 17.748 11.36L18.3271 9.52515C18.3655 9.40355 18.3228 9.27097 18.2207 9.1946L16.6952 8.05367C16.4641 7.88088 16.5864 7.51343 16.8749 7.51343H18.7422C18.8731 7.51343 18.9888 7.42856 19.0282 7.30373L19.5997 5.4933Z" stroke="#1B3A5A" stroke-width="1.2" stroke-linecap="round"/>
<path d="M3.50977 5.7595C3.62437 5.55517 3.91848 5.55517 4.03309 5.7595L6.78702 10.6697C6.89918 10.8697 6.75464 11.1165 6.52536 11.1165H1.0175C0.788213 11.1165 0.64368 10.8697 0.755838 10.6697L3.50977 5.7595Z" stroke="#1B3A5A" stroke-width="1.2" stroke-linecap="round"/>
<path d="M9.01224 12.1702C9.10472 10.783 10.2569 9.70508 11.6472 9.70508V9.70508C13.0374 9.70508 14.1896 10.783 14.2821 12.1702L14.6123 17.1239C14.7267 18.8391 13.3662 20.2933 11.6472 20.2933V20.2933C9.92812 20.2933 8.56765 18.8391 8.682 17.1239L9.01224 12.1702Z" stroke="#1B3A5A" stroke-width="1.2" stroke-linecap="round"/>
</svg>
