<svg width="34" height="35" viewBox="0 0 34 35" fill="none" xmlns="http://www.w3.org/2000/svg">
<circle cx="17" cy="17.4512" r="17" fill="#E5EDF6"/>
<path d="M23.375 23.5605V21.9668C23.375 21.1214 23.0392 20.3107 22.4414 19.7129C21.8436 19.1151 21.0329 18.7793 20.1875 18.7793H13.8125C12.9671 18.7793 12.1564 19.1151 11.5586 19.7129C10.9608 20.3107 10.625 21.1214 10.625 21.9668V23.5605" stroke="#9AA7B6" stroke-width="1.3" stroke-linecap="round" stroke-linejoin="round"/>
<path d="M17 15.5918C18.7604 15.5918 20.1875 14.1647 20.1875 12.4043C20.1875 10.6439 18.7604 9.2168 17 9.2168C15.2396 9.2168 13.8125 10.6439 13.8125 12.4043C13.8125 14.1647 15.2396 15.5918 17 15.5918Z" stroke="#9AA7B6" stroke-width="1.3" stroke-linecap="round" stroke-linejoin="round"/>
</svg>
