<svg width="20" height="21" viewBox="0 0 20 21" fill="none" xmlns="http://www.w3.org/2000/svg">
<path d="M9.04033 9.39022L6.58172 17.1173C6.41756 17.6332 6.80262 18.1598 7.34406 18.1598H11.8226C12.364 18.1598 12.7491 17.6332 12.5849 17.1173L10.1263 9.39022C10.0511 9.15375 9.83148 8.99316 9.58333 8.99316C9.33519 8.99316 9.11557 9.15375 9.04033 9.39022Z" stroke="#1B3A5A" stroke-width="1.2" stroke-linecap="round" stroke-linejoin="round"/>
<path d="M13.1365 12.2478C14.2779 11.2547 14.9993 9.79153 14.9993 8.15983C14.9993 5.16829 12.5742 2.74316 9.58268 2.74316C6.59114 2.74316 4.16602 5.16829 4.16602 8.15983C4.16602 9.89427 4.98121 11.4383 6.24935 12.4297" stroke="#1B3A5A" stroke-width="1.2" stroke-linecap="round" stroke-linejoin="round"/>
<path d="M12.3036 10.0864C12.6897 9.54231 12.9167 8.87741 12.9167 8.15951C12.9167 6.31856 11.4243 4.82617 9.58333 4.82617C7.74238 4.82617 6.25 6.31856 6.25 8.15951C6.25 9.00488 6.5647 9.77675 7.08333 10.3644" stroke="#1B3A5A" stroke-width="1.2" stroke-linecap="round" stroke-linejoin="round"/>
<path d="M10.832 8.16016C10.832 8.85051 10.2724 9.41016 9.58203 9.41016C8.89168 9.41016 8.33203 8.85051 8.33203 8.16016C8.33203 7.4698 8.89168 6.91016 9.58203 6.91016C10.2724 6.91016 10.832 7.4698 10.832 8.16016Z" fill="#1B3A5A"/>
</svg>
