<svg width="20" height="21" viewBox="0 0 20 21" fill="none" xmlns="http://www.w3.org/2000/svg">
<g clip-path="url(#clip0_3009_697)">
<path d="M2.32432 8.58311C2.12051 7.78014 2.60623 6.96399 3.4092 6.76018L6.13883 6.06736L7.30966 10.6803L4.58002 11.3731C3.77706 11.5769 2.96091 11.0912 2.7571 10.2882L2.32432 8.58311Z" stroke="#1B3A5A"/>
<path d="M0.641749 9.39406C0.560227 9.07287 0.754514 8.74641 1.0757 8.66489L1.78234 8.48554L2.32728 10.6325L1.62064 10.8119C1.29945 10.8934 0.972993 10.6991 0.891472 10.3779L0.641749 9.39406Z" fill="#1B3A5A"/>
<path d="M7.49008 10.6219L6.27097 5.81876L10.8334 2.64807L13.0123 11.233L7.49008 10.6219Z" stroke="#1B3A5A"/>
<path fill-rule="evenodd" clip-rule="evenodd" d="M12.3358 8.81023C13.1601 8.53282 13.6439 7.66244 13.4264 6.80546C13.2089 5.94848 12.3685 5.4142 11.5117 5.56348L12.3358 8.81023Z" fill="#1B3A5A"/>
<path d="M14.2078 5.21789L15.1691 3.60272" stroke="#1B3A5A" stroke-linecap="round"/>
<path d="M14.8351 7.68641L16.4503 8.64765" stroke="#1B3A5A" stroke-linecap="round"/>
<path d="M15.0996 6.24854L16.9214 5.78614" stroke="#1B3A5A" stroke-linecap="round"/>
<path d="M4.25391 11.0166L6.40091 10.4717L7.75519 15.8074C7.90567 16.4003 7.54704 17.0029 6.95416 17.1534C6.36128 17.3039 5.75867 16.9452 5.60819 16.3523L4.25391 11.0166Z" fill="#1B3A5A"/>
</g>
<defs>
<clipPath id="clip0_3009_697">
<rect width="20" height="20" fill="white" transform="translate(0 0.451172)"/>
</clipPath>
</defs>
</svg>
