<svg width="20" height="21" viewBox="0 0 20 21" fill="none" xmlns="http://www.w3.org/2000/svg">
<g clip-path="url(#clip0_1161_15185)">
<path d="M13 15.3333C13 15.6575 12.8712 15.9684 12.642 16.1976C12.4128 16.4268 12.1019 16.5556 11.7778 16.5556H4.44444L2 19V9.22222C2 8.89807 2.12877 8.58719 2.35798 8.35798C2.58719 8.12877 2.89807 8 3.22222 8H11.7778C12.1019 8 12.4128 8.12877 12.642 8.35798C12.8712 8.58719 13 8.89807 13 9.22222V15.3333Z" stroke="#1B3A5A" stroke-width="1.2" stroke-linecap="round" stroke-linejoin="round"/>
<path d="M11.1406 5.03709L9.43947 3.33594" stroke="#1B3A5A" stroke-width="1.2" stroke-linecap="round" stroke-linejoin="round"/>
<path d="M16.8086 11.2705L15.1074 9.56934" stroke="#1B3A5A" stroke-width="1.2" stroke-linecap="round" stroke-linejoin="round"/>
<path d="M17.9986 6.11132L15.6748 6.73398" stroke="#1B3A5A" stroke-width="1.2" stroke-linecap="round" stroke-linejoin="round"/>
<path d="M14.6061 2.70997L13.9834 5.03379" stroke="#1B3A5A" stroke-width="1.2" stroke-linecap="round" stroke-linejoin="round"/>
</g>
<defs>
<clipPath id="clip0_1161_15185">
<rect width="18" height="18" fill="white" transform="translate(1 1.5)"/>
</clipPath>
</defs>
</svg>
