<svg width="20" height="21" viewBox="0 0 20 21" fill="none" xmlns="http://www.w3.org/2000/svg">
<path fill-rule="evenodd" clip-rule="evenodd" d="M12.3947 2.95117C11.2902 2.95117 10.3947 3.8466 10.3947 4.95117V6.78451C10.3947 7.88907 11.2902 8.78451 12.3947 8.78451H15.5C16.6046 8.78451 17.5 7.88907 17.5 6.7845V4.95117C17.5 3.8466 16.6046 2.95117 15.5 2.95117H12.3947ZM4.5 17.9512C3.39543 17.9512 2.5 17.0557 2.5 15.9512V14.1178C2.5 13.0133 3.39543 12.1178 4.5 12.1178H7.60526C8.70983 12.1178 9.60526 13.0133 9.60526 14.1178V15.9512C9.60526 17.0557 8.70983 17.9512 7.60527 17.9512H4.5ZM10.3947 11.6178C10.3947 10.5133 11.2902 9.61784 12.3947 9.61784H15.5C16.6046 9.61784 17.5 10.5133 17.5 11.6178V15.9512C17.5 17.0557 16.6046 17.9512 15.5 17.9512H12.3947C11.2902 17.9512 10.3947 17.0557 10.3947 15.9512V11.6178ZM4.5 11.2845C3.39543 11.2845 2.5 10.3891 2.5 9.2845V4.95117C2.5 3.8466 3.39543 2.95117 4.5 2.95117H7.60526C8.70983 2.95117 9.60526 3.8466 9.60526 4.95117V9.2845C9.60526 10.3891 8.70983 11.2845 7.60527 11.2845H4.5Z" fill="#1B3A5A"/>
</svg>
