<svg width="139" height="102" viewBox="0 0 139 102" fill="none" xmlns="http://www.w3.org/2000/svg">
<path d="M138.668 101.896H0.667969C3.7704 98.085 5.48706 96.5725 8.41972 92.6796C12.8887 86.757 20.7293 85.8865 23.705 87.3724C26.6806 88.8559 29.1926 91.0158 32.0578 92.6821C41.3568 98.0847 53.6985 93.0774 62.3934 87.6935C70.1048 82.9225 72.7595 90.2063 76.3067 86.677C84.7 78.3291 99.198 85.95 102.427 89.1156C113.472 99.934 122.447 85.3073 128.213 92.5671C131.811 97.097 133.062 99.6901 138.668 101.895V101.896Z" fill="#F3F9ED"/>
<path d="M121.668 78.8109C121.668 83.2717 123.04 85.2763 124.73 85.2763C126.419 85.2763 127.791 83.2709 127.791 78.8109C127.791 74.351 126.421 69.1221 124.73 69.1221C123.038 69.1221 121.668 74.3492 121.668 78.8109Z" fill="#F3F9ED"/>
<path d="M124.73 93.5635C124.805 93.5635 124.867 93.5011 124.867 93.4246V75.7316C124.867 75.6552 124.805 75.5928 124.73 75.5928C124.655 75.5928 124.594 75.6552 124.594 75.7316V93.4246C124.594 93.5011 124.655 93.5635 124.73 93.5635Z" fill="#F3F9ED"/>
<path d="M128.543 86.3734C128.543 90.8334 129.915 92.8388 131.605 92.8388C133.294 92.8388 134.666 90.8334 134.666 86.3734C134.666 81.9135 133.295 76.6846 131.605 76.6846C129.914 76.6846 128.543 81.9117 128.543 86.3734Z" fill="#F3F9ED"/>
<path d="M131.605 101.126C131.68 101.126 131.742 101.064 131.742 100.987V83.2941C131.742 83.2177 131.68 83.1553 131.605 83.1553C131.53 83.1553 131.469 83.2177 131.469 83.2941V100.987C131.469 101.064 131.53 101.126 131.605 101.126Z" fill="#F3F9ED"/>
<path d="M13.0039 61.5879H63.0039C62.7936 60.1878 62.4125 58.7991 61.5882 57.5305C60.67 56.1074 59.1219 54.8445 57.107 54.2962C55.0921 53.7473 52.6028 54.0277 51.1557 55.1992C49.7318 56.3533 49.4286 58.1882 47.6625 59.0563C45.7097 60.022 42.987 59.2678 41.2989 58.0675C39.6107 56.8734 38.4827 55.2901 36.709 54.1529C34.0637 52.4562 30.0647 51.9993 26.8439 53.0219C23.5533 54.0621 21.3902 56.359 19.0255 58.3304C17.3686 59.7073 15.3065 61.0277 13.0039 61.5879Z" fill="#F3F9ED"/>
<path d="M86.0039 31.5879H136.004C135.794 30.1878 135.412 28.7991 134.588 27.5305C133.67 26.1074 132.122 24.8445 130.107 24.2962C128.092 23.7473 125.603 24.0277 124.156 25.1992C122.732 26.3533 122.429 28.1882 120.663 29.0563C118.71 30.022 115.987 29.2678 114.299 28.0675C112.611 26.8734 111.483 25.2901 109.709 24.1529C107.064 22.4562 103.065 21.9993 99.8439 23.0219C96.5533 24.0621 94.3902 26.359 92.0255 28.3304C90.3686 29.7073 88.3065 31.0277 86.0039 31.5879Z" fill="#F3F9ED"/>
<path d="M99.1522 101.881H61.9887C59.536 101.881 57.7048 99.8582 57.9195 97.3856L65.9542 4.80227C66.1689 2.32967 68.3512 0.306641 70.8039 0.306641H107.967C110.42 0.306641 112.251 2.32967 112.037 4.80227L104.002 97.3856C103.787 99.8582 101.605 101.881 99.1522 101.881Z" fill="#4C84BE"/>
<path d="M55.5211 97.2277L55.023 97.1844L55.5211 97.2276L63.5559 4.64435C63.5559 4.64435 63.5559 4.64434 63.5559 4.64433C63.7486 2.42523 65.719 0.605469 67.9074 0.605469H105.071C107.224 0.605469 108.832 2.37103 108.642 4.55785L100.607 97.1412C100.415 99.3603 98.4441 101.18 96.2557 101.18H59.0922C56.9391 101.18 55.3312 99.4145 55.5211 97.2277Z" fill="#AAD481" stroke="#35506D"/>
<path fill-rule="evenodd" clip-rule="evenodd" d="M91.5719 13.7074C92.2952 12.1607 93.8593 11.0889 95.6701 11.0889C97.6864 11.0889 99.3969 12.4171 99.9811 14.2503C101.285 14.3304 102.333 15.382 102.32 16.7524C102.319 16.8813 88.9052 16.8408 88.9052 16.7524C88.8975 14.6794 89.6058 13.6887 91.2371 13.6887C91.3499 13.6887 91.4617 13.6949 91.5719 13.7074Z" fill="white"/>
<path fill-rule="evenodd" clip-rule="evenodd" d="M81.3203 23.0583C80.2757 20.8241 78.0168 19.2764 75.4003 19.2764C72.4874 19.2764 70.0173 21.1949 69.1735 23.8425C67.2891 23.9585 65.7758 25.4771 65.7944 27.4565C65.7965 27.6432 85.1718 27.5844 85.1718 27.4565C85.1832 24.4619 84.1603 23.0312 81.8041 23.0312C81.6406 23.0312 81.4791 23.0406 81.3203 23.0588V23.0583Z" fill="white"/>
<path d="M73.0353 91.2139C72.7211 94.5272 75.1403 97.2139 78.439 97.2139C81.7376 97.2139 84.6661 94.5272 84.9804 91.2139C85.2946 87.8996 82.8748 85.2139 79.5767 85.2139C76.2785 85.2139 73.3495 87.8996 73.0348 91.2139H73.0353Z" fill="white"/>
<path d="M74.2072 91.214C74.1979 91.3141 74.1923 91.4142 74.1891 91.5124C74.1034 94.0359 75.999 96.0346 78.5505 96.0346C81.1019 96.0346 83.375 94.0359 83.7679 91.5124C83.7833 91.4142 83.7968 91.3141 83.8061 91.214C84.0584 88.5503 82.114 86.3916 79.4647 86.3916C76.8155 86.3916 74.4595 88.5503 74.2072 91.214Z" fill="#6EAC31"/>
<path d="M74.1664 91.491C74.0807 94.0144 75.9763 96.0132 78.5278 96.0132C81.0792 96.0132 83.3523 94.0144 83.7452 91.491C83.8313 88.9656 81.9353 86.9688 79.3857 86.9688C76.8361 86.9688 74.5593 88.9656 74.1664 91.491Z" fill="#9ECE6F"/>
<path d="M79.0712 91.2936C78.631 91.2141 78.3039 90.7834 78.3416 90.3335C78.3792 89.887 78.7634 89.588 79.1999 89.6617C79.2032 89.6623 79.2056 89.6646 79.2083 89.6651C79.2111 89.6656 79.2141 89.6642 79.2174 89.6648C79.6531 89.7483 79.9757 90.1753 79.9381 90.6219C79.9288 90.7309 80.0078 90.8355 80.115 90.8549C80.2222 90.8742 80.3163 90.8014 80.3252 90.6918C80.3758 90.0917 79.9875 89.5155 79.4339 89.3195L79.4594 89.0161C79.4687 88.9071 79.3897 88.8025 79.2825 88.7832C79.1753 88.7638 79.0812 88.8366 79.0723 88.9462L79.0468 89.2496C78.477 89.2431 78.0052 89.6635 77.9545 90.2636C77.8982 90.9316 78.3844 91.5711 79.0381 91.6892C79.4779 91.7686 79.805 92.1993 79.7673 92.6488C79.7297 93.0953 79.3459 93.3948 78.9094 93.3211C78.9062 93.3206 78.9037 93.3182 78.9005 93.3176C78.8973 93.3171 78.8947 93.3185 78.8915 93.3179C78.4558 93.234 78.1333 92.807 78.1709 92.3604C78.1802 92.2513 78.1011 92.1468 77.9939 92.1274C77.8867 92.1081 77.7927 92.1809 77.7838 92.2905C77.733 92.891 78.1215 93.4668 78.6749 93.6632L78.6495 93.9666C78.6402 94.0756 78.7192 94.1802 78.8264 94.1996C78.9336 94.2189 79.0276 94.1461 79.0365 94.0365L79.062 93.7332C79.6318 93.7396 80.1037 93.3192 80.1544 92.7187C80.2107 92.0512 79.7249 91.4117 79.0717 91.2937L79.0712 91.2936Z" fill="white"/>
<rect x="81.0156" y="4.30859" width="11.3539" height="3.40616" rx="1.70308" fill="#35506D"/>
<path d="M96.9755 100.104H59.0111C57.8346 100.104 56.9112 99.1304 57.0136 97.9995L60.0386 65.8704C60.129 64.8708 60.9966 64.1035 62.0361 64.1035H100.001C101.177 64.1035 102.1 65.0766 101.998 66.2076L98.9731 98.3367C98.8826 99.3363 98.0151 100.104 96.9755 100.104Z" fill="white"/>
<path d="M69.7457 76.6299C74.1282 76.4211 84.2581 76.1733 89.718 76.8522C84.7242 76.873 73.7383 76.8578 69.7457 76.6299Z" fill="#3373B5"/>
<path d="M69.7457 82.628C74.1282 82.4192 84.2581 82.1714 89.718 82.8502C84.7242 82.8711 73.7383 82.8559 69.7457 82.628Z" fill="#3373B5"/>
<path d="M67.9598 70.6531C73.6455 70.4779 81.5059 69.1034 93.8737 71.1329C87.3944 71.0962 73.5059 71.133 67.9598 70.6531Z" fill="#3373B5"/>
<path d="M67.8384 79.666C73.58 79.4891 86.852 79.3383 94.0071 80.1505C87.4641 80.1134 73.0702 79.9647 67.8384 79.666Z" fill="#3373B5"/>
<path d="M59.0059 92.1035H69.8579C71.0186 92.1035 71.9355 93.0883 71.8528 94.246L71.5059 99.1035H60.6538C59.4931 99.1035 58.5762 98.1188 58.6589 96.961L59.0059 92.1035Z" fill="#B2CAE3"/>
<path opacity="0.4" d="M94.038 95.9908C93.702 95.9908 93.4296 95.7169 93.4296 95.3792C93.4296 95.0414 93.702 94.7676 94.038 94.7676C94.3741 94.7676 94.6465 95.0414 94.6465 95.3792C94.6465 95.7169 94.3741 95.9908 94.038 95.9908Z" fill="#3373B5"/>
<path opacity="0.4" d="M91.3603 95.9908C91.0243 95.9908 90.7518 95.7169 90.7518 95.3792C90.7518 95.0414 91.0243 94.7676 91.3603 94.7676C91.6963 94.7676 91.9688 95.0414 91.9688 95.3792C91.9688 95.7169 91.6963 95.9908 91.3603 95.9908Z" fill="#3373B5"/>
<path d="M88.6806 95.9908C88.3446 95.9908 88.0722 95.7169 88.0722 95.3792C88.0722 95.0414 88.3446 94.7676 88.6806 94.7676C89.0166 94.7676 89.2891 95.0414 89.2891 95.3792C89.2891 95.7169 89.0166 95.9908 88.6806 95.9908Z" fill="#3373B5"/>
<path d="M73.5046 23.4224C73.5982 22.3923 74.4619 21.6035 75.4964 21.6035H94.4799C95.6559 21.6035 96.5781 22.6134 96.4716 23.7846L93.8353 52.7846C93.7416 53.8147 92.8779 54.6035 91.8435 54.6035H72.86C71.6839 54.6035 70.7617 53.5937 70.8682 52.4224L73.5046 23.4224Z" fill="#FAFFF5"/>
<path d="M74.8225 24.4005C74.9266 23.3798 75.7862 22.6035 76.8122 22.6035H93.2914C94.4762 22.6035 95.4013 23.6278 95.2811 24.8065L93.1892 45.3065C93.0851 46.3272 92.2255 47.1035 91.1996 47.1035H74.7203C73.5355 47.1035 72.6104 46.0792 72.7307 44.9005L74.8225 24.4005Z" fill="#CCDCEC"/>
<g clip-path="url(#clip0_1161_11994)">
<path d="M75.8485 31.4573H91.9079L92.0059 30.3363L84.3461 26.1035L75.9465 30.3363L75.8485 31.4573Z" fill="#3373B5"/>
<path d="M75.1101 39.9219L75.0068 41.1036H91.0646L91.168 39.9219H75.1101Z" fill="#3373B5"/>
<path d="M82.5996 38.9316H80.0266L79.94 39.9212H82.5133L82.5996 38.9316Z" fill="#35506D"/>
<path d="M76.206 38.9316L76.1195 39.9212H78.6927L78.7793 38.9316H76.206Z" fill="#35506D"/>
<path d="M90.2441 38.9316H87.6709L87.5843 39.9212H90.1576L90.2441 38.9316Z" fill="#35506D"/>
<path d="M86.4219 38.9316H83.8486L83.7623 39.9212H86.3353L86.4219 38.9316Z" fill="#35506D"/>
<path d="M83.2539 31.457H80.6809L80.5943 32.4466H83.1674L83.2539 31.457Z" fill="#35506D"/>
<path d="M76.8584 31.457L76.7718 32.4466H79.3451L79.4316 31.457H76.8584Z" fill="#35506D"/>
<path d="M90.8965 31.457H88.3235L88.2369 32.4466H90.8102L90.8965 31.457Z" fill="#35506D"/>
<path d="M87.0762 31.457H84.5029L84.4164 32.4466H86.9896L87.0762 31.457Z" fill="#35506D"/>
<path d="M82.5117 32.4453H81.2496L80.6827 38.9317H81.9447L82.5117 32.4453Z" fill="#3373B5"/>
<path d="M90.1543 32.4453H88.8922L88.325 38.9317H89.5871L90.1543 32.4453Z" fill="#3373B5"/>
<path d="M86.334 32.4453H85.0719L84.5049 38.9317H85.767L86.334 32.4453Z" fill="#3373B5"/>
<path d="M77.4293 32.4453L76.8624 38.9317H78.1244L78.6914 32.4453H77.4293Z" fill="#3373B5"/>
<path d="M84.028 29.7516C84.5536 29.7516 85.0146 29.3138 85.0605 28.78C85.1077 28.2434 84.7226 27.8096 84.1984 27.8096C83.6742 27.8096 83.2103 28.2434 83.1646 28.78C83.1175 29.3138 83.5065 29.7516 84.028 29.7516Z" fill="#46C671"/>
</g>
<g clip-path="url(#clip1_1161_11994)">
<path d="M32.4414 84.3833H59.8368L60.0039 82.4403L46.9373 75.1035L32.6086 82.4403L32.4414 84.3833Z" fill="#3373B5"/>
<path d="M31.1794 99.0557L31.0031 101.104H58.396L58.5723 99.0557H31.1794Z" fill="#3373B5"/>
<path d="M43.959 97.3408H39.5697L39.4221 99.0561H43.8117L43.959 97.3408Z" fill="#35506D"/>
<path d="M33.0498 97.3408L32.9021 99.0561H37.2918L37.4395 97.3408H33.0498Z" fill="#35506D"/>
<path d="M56.9961 97.3408H52.6064L52.4588 99.0561H56.8484L56.9961 97.3408Z" fill="#35506D"/>
<path d="M50.4785 97.3408H46.0888L45.9416 99.0561H50.3309L50.4785 97.3408Z" fill="#35506D"/>
<path d="M45.0742 84.3838H40.6849L40.5373 86.099H44.9266L45.0742 84.3838Z" fill="#35506D"/>
<path d="M34.165 84.3838L34.0173 86.099H38.407L38.5547 84.3838H34.165Z" fill="#35506D"/>
<path d="M58.1113 84.3838H53.7221L53.5744 86.099H57.9641L58.1113 84.3838Z" fill="#35506D"/>
<path d="M51.5918 84.3838H47.2021L47.0545 86.099H51.4441L51.5918 84.3838Z" fill="#35506D"/>
<path d="M43.8086 86.0977H41.6556L40.6884 97.3408H42.8414L43.8086 86.0977Z" fill="#3373B5"/>
<path d="M56.8457 86.0977H54.6927L53.7251 97.3408H55.8781L56.8457 86.0977Z" fill="#3373B5"/>
<path d="M50.3262 86.0977H48.1732L47.206 97.3408H49.359L50.3262 86.0977Z" fill="#3373B5"/>
<path d="M35.1361 86.0977L34.1689 97.3408H36.3219L37.2891 86.0977H35.1361Z" fill="#3373B5"/>
<path d="M46.394 81.4258C47.2907 81.4258 48.0771 80.6669 48.1554 79.7416C48.2359 78.8115 47.5789 78.0596 46.6847 78.0596C45.7905 78.0596 44.9992 78.8115 44.9212 79.7416C44.8408 80.6669 45.5044 81.4258 46.394 81.4258Z" fill="#46C671"/>
</g>
<defs>
<clipPath id="clip0_1161_11994">
<rect width="17" height="15" fill="white" transform="matrix(-1 0 0 1 92.0059 26.1035)"/>
</clipPath>
<clipPath id="clip1_1161_11994">
<rect width="29" height="26" fill="white" transform="matrix(-1 0 0 1 60.0039 75.1035)"/>
</clipPath>
</defs>
</svg>
