<svg width="20" height="20" viewBox="0 0 20 20" fill="none" xmlns="http://www.w3.org/2000/svg">
<path d="M9.82117 2.85715C9.89491 2.70988 10.1051 2.70988 10.1788 2.85716L12.4252 7.34341C12.4545 7.40198 12.5107 7.44248 12.5755 7.45182L17.5944 8.175C17.7593 8.19876 17.8246 8.40185 17.7044 8.51722L14.0768 12.0004C14.0288 12.0465 14.0068 12.1134 14.0182 12.179L14.8748 17.1024C14.9032 17.2654 14.7326 17.3904 14.5857 17.3143L10.0921 14.9846C10.0343 14.9547 9.96567 14.9547 9.90795 14.9846L5.41426 17.3143C5.26737 17.3904 5.09681 17.2654 5.12517 17.1024L5.98176 12.179C5.99316 12.1134 5.97123 12.0465 5.92324 12.0004L2.29556 8.51722C2.1754 8.40185 2.24068 8.19876 2.40555 8.175L7.42451 7.45182C7.48934 7.44248 7.54549 7.40198 7.57482 7.34341L9.82117 2.85715Z" stroke="#1B3A5A" stroke-width="1.2"/>
</svg>
