<svg width="20" height="21" viewBox="0 0 20 21" fill="none" xmlns="http://www.w3.org/2000/svg">
<g clip-path="url(#clip0_1161_15259)">
<path d="M7.14019 17.0731L2.80664 11.3915M12.7372 16.8243L17.0094 11.3019M5.41813 10.5557H3.75146M15.8348 10.5557H14.1681" stroke="#1B3A5A" stroke-width="1.2" stroke-linecap="round" stroke-linejoin="round"/>
<ellipse cx="9.99937" cy="17.9065" rx="2.8607" ry="1.1194" stroke="#1B3A5A" stroke-width="1.2" stroke-linecap="round" stroke-linejoin="round"/>
<ellipse cx="17.5505" cy="10.6805" rx="1.61692" ry="0.621891" fill="#1B3A5A" stroke="#1B3A5A" stroke-width="1.2" stroke-linecap="round" stroke-linejoin="round"/>
<ellipse cx="2.4509" cy="10.6805" rx="1.61692" ry="0.621891" fill="#1B3A5A" stroke="#1B3A5A" stroke-width="1.2" stroke-linecap="round" stroke-linejoin="round"/>
<path d="M14.7266 6.33301C14.7266 10.2219 9.72656 13.5552 9.72656 13.5552C9.72656 13.5552 4.72656 10.2219 4.72656 6.33301C4.72656 5.00693 5.25335 3.73516 6.19103 2.79747C7.12871 1.85979 8.40048 1.33301 9.72656 1.33301C11.0526 1.33301 12.3244 1.85979 13.2621 2.79747C14.1998 3.73516 14.7266 5.00693 14.7266 6.33301Z" stroke="#1B3A5A" stroke-width="1.2" stroke-linecap="round" stroke-linejoin="round"/>
<path d="M9.72721 7.99935C10.6477 7.99935 11.3939 7.25316 11.3939 6.33268C11.3939 5.41221 10.6477 4.66602 9.72721 4.66602C8.80674 4.66602 8.06055 5.41221 8.06055 6.33268C8.06055 7.25316 8.80674 7.99935 9.72721 7.99935Z" stroke="#1B3A5A" stroke-width="1.2" stroke-linecap="round" stroke-linejoin="round"/>
</g>
<defs>
<clipPath id="clip0_1161_15259">
<rect width="20" height="20" fill="white" transform="translate(0 0.5)"/>
</clipPath>
</defs>
</svg>
