<svg width="24" height="24" viewBox="0 0 24 24" fill="none" xmlns="http://www.w3.org/2000/svg">
<path d="M7.42188 14.3189C9.93176 14.3189 12.4417 12.4364 12.4417 9.29908V4.2793" stroke="white" stroke-width="1.2" stroke-linecap="round"/>
<path d="M9.30273 6.79361L12.4401 3.65625L15.5775 6.79361" stroke="white" stroke-width="1.2" stroke-linecap="round"/>
<circle cx="5.53867" cy="14.3238" r="1.88242" stroke="white" stroke-width="1.2" stroke-linecap="round"/>
<path d="M14.3195 18.7135C14.3195 19.7531 13.4767 20.5959 12.4371 20.5959C11.3975 20.5959 10.5547 19.7531 10.5547 18.7135C10.5547 17.6738 11.3975 16.8311 12.4371 16.8311C13.4767 16.8311 14.3195 17.6738 14.3195 18.7135Z" stroke="white" stroke-width="1.2" stroke-linecap="round"/>
<path d="M20.5949 14.3238C20.5949 15.3635 19.7521 16.2062 18.7125 16.2062C17.6729 16.2062 16.8301 15.3635 16.8301 14.3238C16.8301 13.2842 17.6729 12.4414 18.7125 12.4414C19.7521 12.4414 20.5949 13.2842 20.5949 14.3238Z" stroke="white" stroke-width="1.2" stroke-linecap="round"/>
<path d="M13.0645 12.4414C13.4828 13.0689 14.8214 14.3238 16.8293 14.3238" stroke="white" stroke-width="1.2" stroke-linecap="round"/>
<path d="M12.4414 16.2096V14.3271" stroke="white" stroke-width="1.2" stroke-linecap="round"/>
</svg>
