<svg width="18" height="18" viewBox="0 0 18 18" fill="none" xmlns="http://www.w3.org/2000/svg">
<path d="M8.99953 5.91763L8.19703 7.31263C8.01703 7.62013 8.16703 7.87513 8.51953 7.87513H9.47203C9.83203 7.87513 9.97453 8.13013 9.79453 8.43763L8.99953 9.83263M6.37453 16.5001C8.09203 16.0126 9.90703 16.0126 11.6245 16.5001M6.22453 13.5301V12.6601C4.49953 11.6176 3.08203 9.58513 3.08203 7.42513C3.08203 3.71263 6.49453 0.802632 10.3495 1.64263C12.0445 2.01763 13.5295 3.14263 14.302 4.69513C15.8695 7.84513 14.2195 11.1901 11.797 12.6526V13.5226C11.797 13.7401 11.8795 14.2426 11.077 14.2426H6.94453C6.11953 14.2501 6.22453 13.9276 6.22453 13.5301Z" stroke="#0050A2" stroke-width="1.2" stroke-linecap="round" stroke-linejoin="round"/>
</svg>
