<svg width="139" height="104" viewBox="0 0 139 104" fill="none" xmlns="http://www.w3.org/2000/svg">
<path d="M138.336 102.487H0.335938C3.43837 98.6768 5.15503 97.1643 8.08769 93.2714C12.5566 87.3488 20.3973 86.4783 23.373 87.9642C26.3486 89.4477 28.8605 91.6076 31.7258 93.2739C41.0248 98.6765 53.3664 93.6692 62.0614 88.2853C69.7727 83.5143 72.4275 90.7981 75.9747 87.2688C84.368 78.9209 98.866 86.5418 102.095 89.7074C113.14 100.526 122.115 85.8991 127.881 93.1589C131.479 97.6888 132.73 100.282 138.336 102.487V102.487Z" fill="#F3F9ED"/>
<path d="M121.336 79.4027C121.336 83.8635 122.708 85.8681 124.398 85.8681C126.087 85.8681 127.459 83.8627 127.459 79.4027C127.459 74.9428 126.089 69.7139 124.398 69.7139C122.706 69.7139 121.336 74.941 121.336 79.4027Z" fill="#F3F9ED"/>
<path d="M124.398 94.1553C124.473 94.1553 124.535 94.0929 124.535 94.0164V76.3234C124.535 76.247 124.473 76.1846 124.398 76.1846C124.323 76.1846 124.262 76.247 124.262 76.3234V94.0164C124.262 94.0929 124.323 94.1553 124.398 94.1553Z" fill="#F3F9ED"/>
<path d="M128.211 86.9652C128.211 91.4252 129.583 93.4306 131.273 93.4306C132.962 93.4306 134.334 91.4252 134.334 86.9652C134.334 82.5053 132.963 77.2764 131.273 77.2764C129.582 77.2764 128.211 82.5035 128.211 86.9652Z" fill="#F3F9ED"/>
<path d="M131.273 101.718C131.348 101.718 131.41 101.655 131.41 101.579V83.8859C131.41 83.8095 131.348 83.7471 131.273 83.7471C131.198 83.7471 131.137 83.8095 131.137 83.8859V101.579C131.137 101.655 131.198 101.718 131.273 101.718Z" fill="#F3F9ED"/>
<path d="M12.6719 62.1797H62.6719C62.4616 60.7796 62.0804 59.3909 61.2561 58.1223C60.3379 56.6992 58.7899 55.4363 56.775 54.888C54.7601 54.3391 52.2707 54.6195 50.8237 55.791C49.3998 56.9451 49.0966 58.78 47.3305 59.6481C45.3777 60.6138 42.6549 59.8596 40.9668 58.6593C39.2787 57.4652 38.1507 55.8819 36.3769 54.7447C33.7316 53.048 29.7327 52.591 26.5118 53.6137C23.2212 54.6539 21.0581 56.9508 18.6934 58.9222C17.0366 60.2991 14.9745 61.6195 12.6719 62.1797Z" fill="#F3F9ED"/>
<path d="M85.6719 32.1797H135.672C135.462 30.7796 135.08 29.3909 134.256 28.1223C133.338 26.6992 131.79 25.4363 129.775 24.888C127.76 24.3391 125.271 24.6195 123.824 25.791C122.4 26.9451 122.097 28.78 120.331 29.6481C118.378 30.6138 115.655 29.8596 113.967 28.6593C112.279 27.4652 111.151 25.8819 109.377 24.7447C106.732 23.048 102.733 22.591 99.5118 23.6137C96.2212 24.6539 94.0581 26.9508 91.6934 28.9222C90.0366 30.2991 87.9745 31.6195 85.6719 32.1797Z" fill="#F3F9ED"/>
<path d="M38.6719 22.1777H88.6719C88.4616 20.7777 88.0804 19.389 87.2561 18.1204C86.3379 16.6972 84.7899 15.4343 82.775 14.886C80.7601 14.3372 78.2707 14.6175 76.8237 15.7891C75.3998 16.9432 75.0966 18.778 73.3305 19.6462C71.3777 20.6119 68.6549 19.8577 66.9668 18.6574C65.2787 17.4632 64.1507 15.8799 62.3769 14.7428C59.7316 13.046 55.7327 12.5891 52.5118 13.6118C49.2212 14.6519 47.0581 16.9488 44.6934 18.9202C43.0366 20.2971 40.9745 21.6176 38.6719 22.1777Z" fill="#F3F9ED"/>
<path d="M98.8202 102.474H61.6567C59.204 102.474 57.3727 100.451 57.5874 97.9784L65.6222 5.39505C65.8369 2.92245 68.0192 0.899414 70.4719 0.899414H107.635C110.088 0.899414 111.919 2.92245 111.705 5.39505L103.67 97.9784C103.455 100.451 101.273 102.474 98.8202 102.474Z" fill="#022448"/>
<path d="M55.3922 98.0236L54.8941 97.9803L55.3922 98.0235L63.427 5.44025C63.427 5.44024 63.427 5.44024 63.427 5.44023C63.6197 3.22113 65.5901 1.40137 67.7785 1.40137H104.942C107.095 1.40137 108.703 3.16693 108.513 5.35375L100.478 97.9371C100.286 100.156 98.3152 101.976 96.1268 101.976H58.9633C56.8102 101.976 55.2023 100.21 55.3922 98.0236Z" fill="#D4E5EC" stroke="#022448"/>
<path fill-rule="evenodd" clip-rule="evenodd" d="M59.9746 48.6345L63.5016 5.9873C63.7163 3.51471 65.5489 1.90137 68.0016 1.90137H104.502C106.502 1.90137 108.502 2.9873 108.011 6.397L104.492 46.5036C97.7177 50.7872 89.3686 53.3154 80.3375 53.3154C72.9261 53.3154 65.9741 51.6128 59.9746 48.6345Z" fill="#1B3A5A"/>
<rect x="66.7039" y="71.702" width="27.6" height="8.6" rx="4.3" stroke="#6EAC31" stroke-width="0.6"/>
<rect x="67.0039" y="59.002" width="28" height="9" rx="4.5" fill="#6EAC31"/>
<circle cx="6.29803" cy="6.29803" r="6.29803" transform="matrix(1 0 -0.0871557 0.996195 77.8594 12.4863)" fill="#9ECE6F"/>
<path d="M80.7051 18.7825L82.5045 20.5819L86.5533 16.5332" stroke="#022448" stroke-width="0.899719" stroke-linecap="round"/>
<path d="M76.0981 40.0354L75.9063 39.1352H73.8981L73.4853 40.0354H72.4128L74.7903 35.0345H76.0211L77.1777 40.0354H76.0981ZM74.328 38.2136H75.7099L75.2698 36.1704L74.328 38.2136ZM79.3927 40.1354C78.8313 40.1354 78.3899 39.9782 78.0686 39.6639C77.7473 39.3495 77.6192 38.928 77.6841 38.3994L78.0972 35.0345H79.0833L78.6798 38.3208C78.6476 38.5827 78.6966 38.7899 78.8266 38.9423C78.9615 39.0947 79.1896 39.1709 79.5111 39.1709C79.8326 39.1709 80.0771 39.0947 80.2446 38.9423C80.4168 38.7899 80.5191 38.5827 80.5512 38.3208L80.9547 35.0345H81.948L81.5349 38.3994C81.47 38.928 81.2383 39.3495 80.8398 39.6639C80.4413 39.9782 79.9589 40.1354 79.3927 40.1354ZM86.1754 35.0345L86.0596 35.9775H84.6992L84.201 40.0354H83.2077L83.706 35.9775H82.3528L82.4686 35.0345H86.1754ZM90.147 39.3852C89.5769 39.8853 88.9272 40.1354 88.1979 40.1354C87.4685 40.1354 86.8802 39.8853 86.4329 39.3852C85.9911 38.8804 85.8149 38.2636 85.9044 37.5349C85.9938 36.8062 86.3212 36.1918 86.8865 35.6917C87.4571 35.1869 88.1071 34.9345 88.8365 34.9345C89.5658 34.9345 90.1538 35.1869 90.6005 35.6917C91.0477 36.1918 91.2266 36.8062 91.1371 37.5349C91.0477 38.2636 90.7176 38.8804 90.147 39.3852ZM87.2136 38.7137C87.4881 39.0185 87.8556 39.1709 88.3163 39.1709C88.7769 39.1709 89.1819 39.0185 89.5313 38.7137C89.8812 38.4041 90.0854 38.0112 90.1439 37.5349C90.2023 37.0586 90.0946 36.6657 89.8207 36.3561C89.5468 36.0466 89.1796 35.8918 88.7189 35.8918C88.2583 35.8918 87.853 36.0466 87.5031 36.3561C87.1531 36.6657 86.9489 37.0586 86.8905 37.5349C86.832 38.0112 86.9397 38.4041 87.2136 38.7137ZM73.2803 46.0402H75.2021L75.0863 46.9832H72.1712L72.7852 41.9823H73.7785L73.2803 46.0402ZM79.6606 46.3331C79.0905 46.8332 78.4408 47.0832 77.7115 47.0832C76.9821 47.0832 76.3938 46.8332 75.9465 46.3331C75.5047 45.8282 75.3285 45.2114 75.418 44.4827C75.5074 43.754 75.8348 43.1397 76.4001 42.6396C76.9707 42.1347 77.6207 41.8823 78.3501 41.8823C79.0794 41.8823 79.6674 42.1347 80.1141 42.6396C80.5613 43.1397 80.7402 43.754 80.6507 44.4827C80.5613 45.2114 80.2312 45.8282 79.6606 46.3331ZM76.7272 45.6615C77.0017 45.9663 77.3692 46.1187 77.8299 46.1187C78.2905 46.1187 78.6955 45.9663 79.0449 45.6615C79.3948 45.3519 79.599 44.959 79.6574 44.4827C79.7159 44.0065 79.6082 43.6135 79.3343 43.304C79.0604 42.9944 78.6932 42.8396 78.2325 42.8396C77.7719 42.8396 77.3666 42.9944 77.0167 43.304C76.6667 43.6135 76.4625 44.0065 76.4041 44.4827C76.3456 44.959 76.4533 45.3519 76.7272 45.6615ZM84.0981 46.9832L83.9063 46.083H81.8981L81.4853 46.9832H80.4128L82.7903 41.9823H84.0211L85.1777 46.9832H84.0981ZM82.328 45.1614H83.71L83.2698 43.1182L82.328 45.1614ZM89.1961 41.9823H90.1894L89.5753 46.9832H88.8196L87.0357 43.9255L86.6603 46.9832H85.667L86.281 41.9823H87.0368L88.8215 45.0328L89.1961 41.9823Z" fill="#D4E5EC"/>
<path d="M72.7463 30.0428L72.6025 29.3677H71.0963L70.7867 30.0428H69.9824L71.7655 26.2922H72.6886L73.556 30.0428H72.7463ZM71.4187 28.6765H72.4552L72.1251 27.1441L71.4187 28.6765ZM75.7996 27.2888C76.1631 27.2888 76.4557 27.4263 76.6775 27.7013C76.9033 27.9728 76.9918 28.3068 76.9431 28.7033C76.8945 29.0998 76.7237 29.4356 76.4308 29.7106C76.1419 29.9821 75.8158 30.1178 75.4523 30.1178C75.0744 30.1178 74.7989 29.9874 74.6258 29.7267L74.4554 31.1144H73.759L74.2195 27.3638H74.9159L74.8771 27.6799C75.1142 27.4191 75.4218 27.2888 75.7996 27.2888ZM74.8949 29.2498C75.0181 29.3891 75.1877 29.4588 75.4036 29.4588C75.6196 29.4588 75.8063 29.3891 75.9637 29.2498C76.1252 29.1069 76.2196 28.9248 76.2468 28.7033C76.274 28.4818 76.2241 28.3014 76.0973 28.1621C75.9745 28.0192 75.8051 27.9478 75.5892 27.9478C75.3732 27.9478 75.1863 28.0192 75.0284 28.1621C74.8709 28.3014 74.7786 28.4818 74.7514 28.7033C74.7242 28.9248 74.772 29.1069 74.8949 29.2498ZM79.1789 27.2888C79.5423 27.2888 79.835 27.4263 80.0567 27.7013C80.2825 27.9728 80.371 28.3068 80.3224 28.7033C80.2737 29.0998 80.1029 29.4356 79.81 29.7106C79.5211 29.9821 79.195 30.1178 78.8315 30.1178C78.4536 30.1178 78.1781 29.9874 78.005 29.7267L77.8346 31.1144H77.1382L77.5987 27.3638H78.2951L78.2563 27.6799C78.4935 27.4191 78.801 27.2888 79.1789 27.2888ZM78.2741 29.2498C78.3973 29.3891 78.5669 29.4588 78.7829 29.4588C78.9988 29.4588 79.1855 29.3891 79.3429 29.2498C79.5044 29.1069 79.5988 28.9248 79.626 28.7033C79.6532 28.4818 79.6033 28.3014 79.4765 28.1621C79.3537 28.0192 79.1843 27.9478 78.9684 27.9478C78.7524 27.9478 78.5655 28.0192 78.4076 28.1621C78.2502 28.3014 78.1578 28.4818 78.1306 28.7033C78.1035 28.9248 78.1513 29.1069 78.2741 29.2498ZM81.6178 27.8246C81.7036 27.6531 81.8255 27.5245 81.9836 27.4388C82.1453 27.3531 82.3179 27.3102 82.5015 27.3102L82.4067 28.0818C82.1975 28.0567 82.0015 28.0996 81.8187 28.2103C81.6396 28.3211 81.5342 28.505 81.5026 28.7622L81.3454 30.0428H80.649L80.978 27.3638H81.6743L81.6178 27.8246ZM84.8135 29.7106C84.5031 29.9821 84.1481 30.1178 83.7486 30.1178C83.3492 30.1178 83.0275 29.9821 82.7838 29.7106C82.544 29.4356 82.4485 29.0998 82.4972 28.7033C82.5458 28.3068 82.7236 27.9728 83.0305 27.7013C83.3413 27.4263 83.6965 27.2888 84.096 27.2888C84.4955 27.2888 84.8169 27.4263 85.0602 27.7013C85.304 27.9728 85.4016 28.3068 85.3529 28.7033C85.3042 29.0998 85.1244 29.4356 84.8135 29.7106ZM83.3336 29.2337C83.4568 29.373 83.6228 29.4427 83.8315 29.4427C84.0403 29.4427 84.2234 29.373 84.3808 29.2337C84.5383 29.0944 84.6302 28.9176 84.6565 28.7033C84.6828 28.489 84.6343 28.3122 84.5111 28.1728C84.3878 28.0335 84.2218 27.9639 84.0131 27.9639C83.8044 27.9639 83.6213 28.0335 83.4638 28.1728C83.31 28.3122 83.2199 28.489 83.1935 28.7033C83.1672 28.9176 83.2139 29.0944 83.3336 29.2337ZM87.6779 27.3638H88.4444L87.0898 30.0428H86.2962L85.5995 27.3638H86.3661L86.789 29.2391L87.6779 27.3638ZM89.0638 28.9873C89.1162 29.323 89.3493 29.4909 89.7632 29.4909C90.0295 29.4909 90.242 29.4016 90.4007 29.223L90.9226 29.5445C90.6094 29.9267 90.1936 30.1178 89.6754 30.1178C89.2291 30.1178 88.8875 29.9839 88.6505 29.716C88.4135 29.4481 88.3199 29.1105 88.3699 28.7033C88.4195 28.2996 88.5939 27.9639 88.8931 27.696C89.1927 27.4245 89.5513 27.2888 89.9688 27.2888C90.3647 27.2888 90.6737 27.4245 90.8959 27.696C91.1217 27.9674 91.21 28.3032 91.1609 28.7033C91.1499 28.7926 91.1293 28.8873 91.099 28.9873H89.0638ZM89.1188 28.4515H90.4954C90.4782 28.2693 90.4121 28.1335 90.2971 28.0442C90.1857 27.9549 90.0508 27.9103 89.8925 27.9103C89.7053 27.9103 89.5446 27.9585 89.4104 28.055C89.2767 28.1478 89.1795 28.28 89.1188 28.4515ZM93.9679 26.2922H94.6643L94.2038 30.0428H93.5074L93.5462 29.7267C93.3091 29.9874 93.0016 30.1178 92.6237 30.1178C92.2602 30.1178 91.9656 29.9821 91.7398 29.7106C91.518 29.4356 91.4315 29.0998 91.4802 28.7033C91.5289 28.3068 91.6976 27.9728 91.9865 27.7013C92.2794 27.4263 92.6076 27.2888 92.971 27.2888C93.3489 27.2888 93.6244 27.4191 93.7975 27.6799L93.9679 26.2922ZM92.32 29.2498C92.4468 29.3891 92.6182 29.4588 92.8342 29.4588C93.0501 29.4588 93.2368 29.3891 93.3942 29.2498C93.5521 29.1069 93.6447 28.9248 93.6719 28.7033C93.6991 28.4818 93.651 28.3014 93.5278 28.1621C93.405 28.0192 93.2356 27.9478 93.0197 27.9478C92.8037 27.9478 92.615 28.0192 92.4535 28.1621C92.2961 28.3014 92.2037 28.4818 92.1766 28.7033C92.1494 28.9248 92.1972 29.1069 92.32 29.2498Z" fill="#9ECE6F"/>
<rect x="80.6836" y="2.90039" width="11.3539" height="3.40616" rx="1.70308" fill="#022448"/>
<path fill-rule="evenodd" clip-rule="evenodd" d="M73.9728 99.1089H9.70878L9.7097 99.108C8.04046 99.108 6.51942 97.8678 6.14519 96.2019L5.30408 92.4609C4.95115 90.8883 5.72001 89.3774 7.15026 88.8311L7.21973 88.8049C10.9686 87.3743 14.8758 86.3181 18.8887 85.6523L23.2109 84.9351C24.8237 84.6671 26.3558 84.1217 27.7416 83.3224L30.9958 81.4444C34.7317 79.2891 39.0298 78.1592 43.4975 78.1592H49.7085C54.3133 78.1592 58.9459 79.3386 63.1699 81.5864L69.5884 85.0014C70.6991 85.5925 71.8783 86.0174 73.0863 86.2612L73.291 86.3023C74.385 86.5236 75.3474 87.2604 75.868 88.2764L76.2339 88.9908C77.5715 91.5999 77.792 94.5621 76.8416 97.1432C76.4007 98.3413 75.2798 99.1089 73.9728 99.1089ZM57.1177 85.0639H28.3766L29.3112 84.3336C33.7947 80.8298 39.1405 78.9752 44.7568 78.9752H48.6131C52.7973 78.9752 57.027 80.0043 61.0361 81.9999L64.4024 83.6753L62.9777 84.1394C61.0926 84.7529 59.1232 85.0639 57.1177 85.0639Z" fill="#1961AC"/>
<path d="M51.502 78.5029L58.002 85.0029" stroke="#1961AC" stroke-width="0.4" stroke-linecap="round"/>
<path d="M43.502 78.5029V85.0029" stroke="#1961AC" stroke-width="0.4" stroke-linecap="round"/>
<path d="M6.85474 92.1921H76.7239C76.837 92.1921 76.9277 92.1006 76.9277 91.9867C76.9277 91.8728 76.837 91.7812 76.7239 91.7812H6.85474C6.74173 91.7812 6.65096 91.8728 6.65096 91.9867C6.65096 92.1006 6.74173 92.1921 6.85474 92.1921Z" fill="#022448"/>
<path d="M56.0756 96.207C56.4063 100.014 59.7356 103.102 63.5122 103.102C67.2888 103.102 70.0826 100.015 69.7529 96.207C69.4222 92.3998 66.0929 89.3125 62.3163 89.3125C58.5397 89.3125 55.7459 92.3988 56.0756 96.207Z" fill="#022448"/>
<path d="M58.3883 96.1893C58.6079 98.7135 60.8153 100.76 63.3192 100.76C65.823 100.76 67.6757 98.7135 67.4571 96.1893C67.2375 93.6651 65.0301 91.6182 62.5262 91.6182C60.0224 91.6182 58.1697 93.6651 58.3883 96.1893Z" fill="#1961AC"/>
<path d="M63.3107 100.976C64.577 100.976 65.7256 100.479 66.5454 99.5771C67.3698 98.6704 67.7626 97.4639 67.6514 96.1817C67.4236 93.5576 65.1207 91.4229 62.5168 91.4229C61.2514 91.4229 60.1028 91.9197 59.2821 92.8217C58.4576 93.7285 58.0649 94.935 58.176 96.2172C58.4039 98.8413 60.7068 100.976 63.3107 100.976ZM62.5177 91.8337C64.9151 91.8337 67.0364 93.8004 67.2457 96.2172C67.3467 97.3835 66.9919 98.478 66.2453 99.2988C65.5033 100.115 64.4612 100.565 63.3107 100.565C60.9133 100.565 58.792 98.5985 58.5827 96.1817C58.4817 95.0153 58.8365 93.9209 59.5831 93.1C60.3251 92.2839 61.3672 91.8337 62.5168 91.8337H62.5177Z" fill="#022448"/>
<path d="M61.1815 96.1746C61.2667 97.156 62.1254 97.9517 63.099 97.9517C64.0725 97.9517 64.7932 97.156 64.708 96.1746C64.6228 95.1931 63.7641 94.3975 62.7905 94.3975C61.8169 94.3975 61.0962 95.1931 61.1815 96.1746Z" fill="#1961AC"/>
<path d="M63.0906 98.1672C63.6186 98.1672 64.0975 97.9599 64.4402 97.5826C64.7848 97.2035 64.9488 96.7011 64.9025 96.1669C64.8089 95.0837 63.8576 94.2021 62.7821 94.2021C62.2541 94.2021 61.7752 94.4095 61.4324 94.7867C61.0878 95.1659 60.9239 95.6683 60.9702 96.2024C61.0638 97.2857 62.0151 98.1672 63.0906 98.1672ZM62.7821 94.6121C63.651 94.6121 64.4198 95.3256 64.4967 96.2015C64.5329 96.6189 64.4059 97.0111 64.1401 97.3034C63.8752 97.5948 63.5028 97.7554 63.0915 97.7554C62.2226 97.7554 61.4537 97.042 61.3769 96.166C61.3407 95.7477 61.4676 95.3564 61.7335 95.0632C61.9984 94.7718 62.3708 94.6112 62.7821 94.6112V94.6121Z" fill="#022448"/>
<path d="M12.4467 96.207C12.7774 100.014 16.1066 103.102 19.8833 103.102C23.6599 103.102 26.4537 100.015 26.124 96.207C25.7933 92.3998 22.464 89.3125 18.6874 89.3125C14.9108 89.3125 12.1169 92.3988 12.4467 96.207Z" fill="#022448"/>
<path d="M14.7829 96.1795C15.0024 98.7037 17.2099 100.751 19.7137 100.751C22.2176 100.751 24.0702 98.7037 23.8516 96.1795C23.6321 93.6554 21.4246 91.6084 18.9208 91.6084C16.4169 91.6084 14.5643 93.6554 14.7829 96.1795Z" fill="#1961AC"/>
<path d="M19.7052 100.966C20.9706 100.966 22.1201 100.469 22.9399 99.5674C23.7644 98.6606 24.1571 97.4541 24.046 96.1719C23.8181 93.5478 21.5152 91.4131 18.9113 91.4131C17.646 91.4131 16.4964 91.9099 15.6766 92.812C14.8522 93.7187 14.4594 94.9253 14.5706 96.2074C14.7984 98.8315 17.1013 100.966 19.7052 100.966ZM18.9113 91.824C21.3087 91.824 23.43 93.7906 23.6393 96.2074C23.7403 97.3738 23.3855 98.4682 22.6389 99.2891C21.8969 100.105 20.8548 100.555 19.7043 100.555C17.3069 100.555 15.1856 98.5887 14.9763 96.1719C14.8753 95.0056 15.2301 93.9111 15.9767 93.0903C16.7187 92.2741 17.7608 91.824 18.9104 91.824H18.9113Z" fill="#022448"/>
<path d="M17.5135 96.1746C17.5987 97.156 18.4574 97.9517 19.431 97.9517C20.4046 97.9517 21.1253 97.156 21.04 96.1746C20.9548 95.1931 20.0961 94.3975 19.1225 94.3975C18.149 94.3975 17.4283 95.1931 17.5135 96.1746Z" fill="#1961AC"/>
<path d="M19.4226 98.1672C19.9497 98.1672 20.4295 97.9599 20.7723 97.5826C21.1169 97.2035 21.2808 96.7011 21.2345 96.1669C21.1409 95.0837 20.1896 94.2021 19.1141 94.2021C18.587 94.2021 18.1072 94.4095 17.7645 94.7867C17.4199 95.1659 17.2559 95.6683 17.3022 96.2024C17.3958 97.2857 18.3471 98.1672 19.4226 98.1672ZM19.1141 94.6121C19.983 94.6121 20.7528 95.3256 20.8288 96.2015C20.8649 96.6189 20.738 97.0111 20.4721 97.3044C20.2072 97.5957 19.8348 97.7554 19.4235 97.7554C18.5546 97.7554 17.7858 97.042 17.7089 96.166C17.6728 95.7477 17.7997 95.3564 18.0655 95.0632C18.3305 94.7718 18.7028 94.6121 19.1141 94.6121Z" fill="#022448"/>
<path d="M35.0377 85.3018H32.0753C31.6186 85.3018 31.2166 84.9292 31.1768 84.4688L31.1267 83.8945C31.0869 83.4341 31.4241 83.0615 31.8808 83.0615H34.8432C35.2998 83.0615 35.7019 83.4341 35.7417 83.8945L35.7917 84.4688C35.8316 84.9292 35.4944 85.3018 35.0377 85.3018Z" fill="#022448"/>
</svg>
