<svg width="50" height="66" viewBox="0 0 50 66" fill="none" xmlns="http://www.w3.org/2000/svg">
<rect y="0.5" width="50" height="65" rx="25" fill="#DCEAF0"/>
<path d="M38.4939 25.1494L38.4368 44.1552C38.4368 44.5566 38.1628 44.9471 37.6147 45.2509L19.9187 55.025C18.8113 55.6325 17.0188 55.6325 15.9 55.025L12.3607 53.0832C11.8013 52.7795 11.5273 52.3781 11.5273 51.9767L11.5844 32.9818C11.573 32.5804 11.8471 32.179 12.4065 31.8752L30.1026 22.1011C31.21 21.4936 33.0024 21.4936 34.1099 22.1011L37.6605 24.043C38.2199 24.3467 38.4939 24.748 38.4939 25.1494Z" fill="#0050A2"/>
<path d="M38.4791 25.1729L38.4224 44.1781C38.4212 44.5752 38.1465 44.9716 37.5977 45.2748L37.6543 26.2695C38.2032 25.9664 38.4779 25.5699 38.4791 25.1729Z" fill="#0050A2"/>
<path d="M19.9573 36.0371L19.8982 55.0399C18.7957 55.6516 16.9978 55.6516 15.8879 55.0399L12.3439 53.0996C11.7816 52.7973 11.5078 52.3895 11.5078 51.9888L11.567 33C11.567 33.3937 11.8482 33.7944 12.4031 34.0967L15.9397 36.0371C17.057 36.6487 18.8475 36.6487 19.9573 36.0371Z" fill="#0050A2"/>
<path d="M37.6575 26.2705L37.6008 45.2757L19.9043 55.0475L19.961 36.0423L37.6575 26.2705Z" fill="#0050A2"/>
<path d="M37.6533 24.0454C38.7656 24.6556 38.7714 25.6439 37.6664 26.2541L19.9698 36.0259C18.8648 36.6361 17.069 36.6361 15.9567 36.0259L12.4162 34.0837C11.3039 33.4734 11.298 32.4851 12.4031 31.8749L30.0996 22.1032C31.2047 21.493 33.0004 21.493 34.1127 22.1032L37.6533 24.0454Z" fill="#9ECE6F"/>
<path d="M34.7121 26.4159C34.6677 26.437 34.6307 26.4581 34.5863 26.4792C33.3951 27.0768 31.5676 27.0557 30.406 26.4229C30.3986 26.4229 30.3986 26.4159 30.3912 26.4159C29.2073 25.7691 29.1852 24.7146 30.3394 24.0608C30.3468 24.0538 30.3616 24.0467 30.3764 24.0397C31.5528 23.3859 33.4765 23.3789 34.6751 24.0257C34.6825 24.0327 34.6899 24.0327 34.6973 24.0397C35.8959 24.6935 35.9033 25.7621 34.7121 26.4159Z" fill="#022448"/>
<path d="M19.6661 34.5537C19.6143 34.5889 19.5551 34.6241 19.4959 34.6592C18.3639 35.2779 16.5586 35.313 15.3526 34.7577C15.2934 34.7225 15.2268 34.6944 15.1676 34.6592C13.9764 33.9984 13.969 32.9368 15.1528 32.276C15.212 32.2478 15.2711 32.2127 15.3304 32.1916C16.529 31.6221 18.3417 31.6573 19.4811 32.276C19.5477 32.3111 19.6069 32.3462 19.6661 32.3884C20.6206 33.0141 20.6206 33.9281 19.6661 34.5537Z" fill="#022448"/>
<path d="M34.7174 24.7903C34.7174 24.7903 34.7174 24.7957 34.7174 24.8012C34.7174 25.1027 34.5098 25.4042 34.0886 25.6344C33.2464 26.1003 31.8792 26.1003 31.0311 25.6344C30.6042 25.4042 30.3908 25.0972 30.3908 24.7903L30.3792 16.1405C30.3735 15.3074 30.1369 14.8031 29.9004 14.6715C29.6581 14.54 29.0639 14.6003 28.2852 15.0278L23.8893 17.4396C21.6337 18.6785 19.6607 21.9235 19.6665 24.3846L19.678 33.1385C19.678 33.144 19.678 33.1495 19.678 33.1495C19.678 33.4564 19.4704 33.7579 19.0492 33.9882C18.207 34.4541 16.8398 34.4541 15.986 33.9882C15.5648 33.7524 15.3514 33.4455 15.3514 33.1385L15.3399 24.3901C15.3283 20.4654 18.132 15.85 21.726 13.8767L26.1219 11.4648C28.2102 10.3192 30.3735 10.1877 32.058 11.1086C33.731 12.0239 34.7001 13.8548 34.7059 16.1351L34.7174 24.7903Z" fill="#35506D"/>
<path d="M34.7127 23.1625V26.1738C34.7127 26.2863 34.6831 26.3988 34.6239 26.5112C33.4327 27.1088 31.6052 27.0877 30.4436 26.455C30.3992 26.3636 30.377 26.2652 30.377 26.1667V23.1484C30.377 23.4578 30.5915 23.7671 31.0206 24.0061C31.8641 24.4701 33.2403 24.4701 34.0838 24.0061C34.5055 23.7671 34.7127 23.4648 34.7127 23.1625Z" fill="#022448"/>
<path d="M19.6736 31.5391V34.5151C19.6218 34.5503 19.5627 34.5855 19.5035 34.6206C18.3715 35.2393 16.5662 35.2744 15.3601 34.719C15.3453 34.6628 15.3379 34.5995 15.3379 34.5362V31.5391C15.3379 31.8413 15.5525 32.1507 15.9742 32.3756C16.8251 32.8396 18.2013 32.8396 19.0373 32.3756C19.4591 32.1437 19.6736 31.8414 19.6736 31.5391Z" fill="#022448"/>
<path d="M28.2498 14.3406C28.2498 14.8039 28.0763 15.1257 27.8036 15.2749L23.4111 17.703C23.6921 17.5538 23.8574 17.224 23.8574 16.7686C23.8656 15.8421 23.1797 14.7114 22.3286 14.2482C21.9071 14.0127 21.5188 13.9969 21.2461 14.1461L25.6304 11.7259C25.9113 11.5689 26.2997 11.5925 26.7211 11.828C27.5722 12.2913 28.2581 13.4141 28.2498 14.3406Z" fill="#022448"/>
<path d="M33.7698 38.6016C33.7812 41.2051 31.8632 44.3619 29.4885 45.6636C28.2897 46.3145 27.2052 46.3796 26.4287 45.9457L26.2918 45.8697L25.4355 45.4033C24.6706 44.9802 24.1911 44.069 24.1797 42.7889C24.1797 40.1854 26.0977 37.0286 28.4724 35.7268C29.6712 35.0651 30.7558 35.0109 31.5321 35.4339L32.3541 35.9003C32.4112 35.9221 32.4683 35.9546 32.5139 35.9871C33.2903 36.3994 33.7698 37.3107 33.7698 38.6016Z" fill="#022448"/>
<path d="M31.5068 35.4377L32.4911 35.9811C31.7093 35.5495 30.6266 35.6105 29.4315 36.266L28.4473 35.7226C29.6424 35.0671 30.725 35.0061 31.5068 35.4377Z" fill="#022448"/>
<path d="M29.6799 37.9679C31.2558 37.1024 32.5407 37.7979 32.5451 39.5211C32.5511 41.2417 31.2741 43.3444 29.6985 44.2077C28.1192 45.0749 26.8343 44.3777 26.8301 42.6563C26.8242 40.9341 28.1002 38.8338 29.6799 37.9679Z" fill="#9ECE6F"/>
<path d="M26.4075 45.9503L25.423 45.4067C24.6505 44.9801 24.1718 44.073 24.168 42.7843C24.1603 40.1884 26.0794 37.0298 28.4586 35.7246L29.4432 36.2683C27.064 37.5735 25.1448 40.7321 25.1525 43.328C25.1563 44.6167 25.6351 45.5238 26.4075 45.9503Z" fill="#022448"/>
<path d="M29.4444 36.2654C27.0682 37.5707 25.1449 40.7246 25.1524 43.3211C25.1598 45.9176 27.0904 46.9619 29.4741 45.6566C31.8503 44.3583 33.7661 41.1974 33.7587 38.6009C33.7513 36.0044 31.8206 34.9601 29.4444 36.2654ZM29.6968 44.2031C28.1152 45.0709 26.8305 44.3724 26.8231 42.6508C26.8157 40.9292 28.0929 38.8337 29.6746 37.9658C31.2488 37.098 32.5335 37.7965 32.5409 39.5181C32.5483 41.2397 31.2711 43.3423 29.6968 44.2031Z" fill="#35506D"/>
<path d="M29.6131 39.447C30.1384 39.1588 30.5601 39.3871 30.5618 39.9559C30.563 40.38 30.3311 40.877 29.9981 41.2096L30.0012 42.2374C30.0019 42.4619 29.8334 42.7342 29.6232 42.8496C29.4222 42.9598 29.2527 42.873 29.252 42.6485L29.249 41.6208C28.915 41.6541 28.6809 41.4127 28.6797 40.9887C28.678 40.4199 29.0969 39.7303 29.6131 39.447Z" fill="#022448"/>
<path d="M30.5854 39.9358C30.5854 40.3643 30.3493 40.8607 30.0202 41.1939V42.2208C30.0202 42.4452 29.8556 42.7172 29.641 42.8328C29.505 42.9076 29.3905 42.8872 29.3262 42.7988C29.5122 42.6764 29.6481 42.4248 29.6481 42.2207V41.1939C29.9844 40.8607 30.2134 40.3643 30.2134 39.9358C30.2062 39.6094 30.0703 39.3986 29.8556 39.3306C30.2706 39.215 30.5783 39.453 30.5854 39.9358Z" fill="#022448"/>
</svg>
