<svg width="17" height="21" viewBox="0 0 17 21" fill="none" xmlns="http://www.w3.org/2000/svg">
<path d="M14.4987 9.21484H2.49935C1.55263 9.21484 0.785156 10.0521 0.785156 11.0849V17.63C0.785156 18.6628 1.55263 19.5 2.49935 19.5H14.4987C15.4454 19.5 16.2129 18.6628 16.2129 17.63V11.0849C16.2129 10.0521 15.4454 9.21484 14.4987 9.21484Z" stroke="white" stroke-width="1.3" stroke-linecap="round" stroke-linejoin="round"/>
<path d="M4.10938 9.21484V5.78837C4.10824 4.72621 4.52597 3.70154 5.28147 2.91328C6.03697 2.12502 7.07633 1.62942 8.19779 1.52267C9.31925 1.41592 10.4428 1.70566 11.3503 2.33562C12.2578 2.96558 12.8846 3.89084 13.1089 4.93176V9.21484" stroke="white" stroke-width="1.3" stroke-linecap="round" stroke-linejoin="round"/>
<ellipse cx="8.92041" cy="14.689" rx="1.28564" ry="1.28564" fill="white"/>
</svg>
