<svg width="117" height="30" viewBox="0 0 117 30" fill="none" xmlns="http://www.w3.org/2000/svg">
<path d="M73.7439 10.1218L73.2853 10.0411C71.8055 9.79919 69.9713 9.47659 69.9504 8.26686C69.9296 7.92411 70.0755 7.58135 70.3256 7.33941C70.8675 6.79503 71.9514 6.4926 73.2645 6.4926H73.327C74.7027 6.4926 75.849 6.69422 77.0163 7.68216L77.1622 7.80314C77.2872 7.90395 77.4748 7.90395 77.579 7.78297L78.642 6.67405C78.7671 6.55308 78.7463 6.37162 78.6212 6.25065L78.4544 6.10951C77.1413 4.89979 75.3905 4.29492 73.2853 4.29492H73.2228C71.3052 4.29492 69.6378 4.8393 68.679 5.78692C67.9912 6.45227 67.616 7.35957 67.6368 8.30719C67.6785 11.2912 70.7008 11.7952 73.1186 12.1783C75.7031 12.5816 76.9329 12.9848 76.8912 14.1542C76.8287 15.868 74.4109 16.0495 73.3687 16.0495C71.5345 16.0495 69.9087 15.3236 69.0542 14.134L68.9083 13.9526C68.8041 13.8115 68.6165 13.7913 68.4914 13.8719C68.4706 13.8719 68.4706 13.8921 68.4706 13.8921L67.22 14.9809C67.0949 15.0817 67.0741 15.243 67.1574 15.3639L67.2617 15.5051C68.408 17.2189 70.7008 18.2471 73.3479 18.2471C74.7027 18.2471 79.0797 17.9649 79.184 14.255C79.3715 11.0291 75.9741 10.4847 73.7439 10.1218Z" fill="#0050A2"/>
<path d="M39.664 4.19336H39.3722C37.538 4.19336 35.9122 4.85871 34.5366 6.18941C33.1609 7.47979 32.3897 9.25406 32.4106 11.109V21.9159C32.4106 22.0772 32.5565 22.2183 32.7232 22.2183H34.3698C34.5366 22.2183 34.6825 22.0772 34.6825 21.9159V16.1898C35.9122 17.3391 37.5588 18.0044 39.268 18.0448H39.5598C41.3731 18.0448 43.124 17.3391 44.3745 16.0689C45.7502 14.7583 46.5214 12.9639 46.5005 11.0888C46.5214 9.29438 45.8127 7.56044 44.4996 6.29022C43.249 4.97968 41.4982 4.23368 39.664 4.19336ZM39.3722 6.39103H39.6223C40.8729 6.43136 42.061 6.97574 42.8738 7.88303C43.7492 8.77017 44.2286 9.9799 44.187 11.2098C44.187 12.4397 43.6659 13.6292 42.7488 14.4962C41.8734 15.3834 40.6436 15.8672 39.393 15.8471C38.1633 15.8874 36.9544 15.3834 36.1207 14.5164C35.2244 13.6494 34.7242 12.48 34.7242 11.2501C34.6825 9.95973 35.1827 8.70968 36.1207 7.78222C36.9335 6.87493 38.1216 6.39103 39.3722 6.39103Z" fill="#0050A2"/>
<path d="M60.0694 4.49575H58.3603C58.1935 4.49575 58.0476 4.63688 58.0476 4.79818V12.2178C58.0476 14.2341 56.3593 15.8672 54.275 15.8672C52.1907 15.8672 50.5024 14.2341 50.5024 12.2178V4.77802C50.5024 4.61672 50.3565 4.47559 50.1898 4.47559H48.4806C48.3139 4.47559 48.168 4.61672 48.168 4.77802V12.0162C48.168 13.73 48.7516 15.1817 49.8771 16.3309C51.0235 17.4802 52.6076 18.1052 54.2542 18.0649C56.005 18.0649 57.464 17.4802 58.6104 16.3309C59.7568 15.1817 60.3612 13.73 60.3612 12.0162V4.77802C60.3821 4.61672 60.2362 4.49575 60.0694 4.49575Z" fill="#0050A2"/>
<path d="M63.0509 0H64.7392C64.906 0 65.0519 0.141135 65.0519 0.302432V17.4604C65.0519 17.6217 64.906 17.7628 64.7392 17.7628H63.0509C62.8842 17.7628 62.7383 17.6217 62.7383 17.4604V0.302432C62.7383 0.141135 62.8842 0 63.0509 0Z" fill="#0050A2"/>
<path d="M92.565 6.31046C91.2936 4.97976 89.5219 4.2136 87.6669 4.17327H87.3751C85.5409 4.15311 83.7901 4.85878 82.5395 6.14916C79.7048 8.87105 79.684 13.2866 82.4978 16.0286C82.5186 16.0488 82.5395 16.0689 82.5603 16.0891C83.8526 17.319 85.5617 18.0247 87.3751 18.0448H87.4793C89.251 18.065 90.9601 17.3795 92.2316 16.1697V17.4601C92.2316 17.6214 92.3775 17.7626 92.5442 17.7626H94.1908C94.3576 17.7626 94.5035 17.6214 94.5035 17.4601V11.109C94.5868 9.31462 93.8782 7.58067 92.565 6.31046ZM87.5418 15.8472H87.2917C86.0411 15.8068 84.8739 15.2625 84.0402 14.3552C83.1648 13.4479 82.7062 12.2381 82.7479 11.0082C82.7479 9.77835 83.2481 8.58878 84.1652 7.72181C85.0407 6.83467 86.2704 6.33062 87.5418 6.37095C88.7716 6.35078 89.9596 6.83467 90.7725 7.72181C91.6688 8.58878 92.169 9.75819 92.169 10.9881C92.2107 12.2986 91.6896 13.5688 90.7517 14.4761C89.9388 15.3431 88.7716 15.8472 87.5418 15.8472Z" fill="#0050A2"/>
<path d="M101.673 4.45618H98.9633V0.32294C98.9633 0.161643 98.8174 0.0205078 98.6507 0.0205078H96.9416C96.7748 0.0205078 96.6289 0.161643 96.6289 0.32294V13.8114C96.6289 16.614 98.338 18.0253 101.715 18.0253C101.84 18.0253 101.923 17.9447 101.923 17.8237V16.2914C101.923 16.1704 101.84 16.0897 101.715 16.0897C99.8388 16.0897 98.9633 15.2631 98.9633 13.509V6.5732H101.673C101.84 6.5732 101.986 6.45223 101.986 6.29093V4.77877C101.986 4.59731 101.84 4.47634 101.673 4.45618Z" fill="#0050A2"/>
<path d="M114.596 6.31095C113.366 5.02058 111.657 4.23425 109.844 4.13344C109.698 4.13344 109.552 4.11328 109.406 4.11328C107.572 4.11328 105.925 4.77863 104.529 6.1295C103.09 7.4602 102.298 9.31511 102.361 11.2305C102.382 13.0854 103.132 14.7186 104.57 16.0896C105.967 17.4001 107.613 18.0655 109.448 18.0655H109.552C111.011 18.0655 112.428 17.6018 113.616 16.7953C114.492 16.1702 115.221 15.3638 115.721 14.4565C115.805 14.3153 115.888 14.154 115.951 13.9927L116.222 13.3475C116.263 13.2467 116.222 13.1258 116.117 13.0854C116.076 13.0653 116.055 13.0653 116.013 13.0653H114.179C114.033 13.0653 113.887 13.1459 113.825 13.2871C113.7 13.5693 113.533 13.8113 113.324 14.0532C112.532 14.9404 111.469 15.8275 109.614 15.8476H109.531C108.343 15.8678 107.196 15.4444 106.321 14.6782C105.487 13.9927 104.925 13.0249 104.779 11.9765H116.159C116.388 11.9765 116.555 11.7951 116.555 11.5934V10.8071C116.555 9.13365 115.888 7.62149 114.596 6.31095ZM106.404 7.41987C107.259 6.73436 108.343 6.37144 109.468 6.3916H109.552C110.677 6.3916 111.761 6.77468 112.637 7.4602C113.408 8.08522 113.95 8.93203 114.2 9.87965H104.8C105.029 8.91187 105.592 8.0449 106.404 7.41987Z" fill="#0050A2"/>
<path d="M24.5949 5.76601C23.9696 3.38687 22.0521 1.5118 19.5926 0.866607C17.5291 0.362553 15.3823 0.100445 13.2563 0.140769C10.3591 0.140769 8.23305 0.483526 6.73234 0.886769C4.60634 1.47147 2.8972 2.96347 2.08432 4.93936C1.10469 7.25801 0 11.2098 0 17.1778C0 21.6941 0.583609 24.9805 1.27143 27.279C1.29228 27.3597 1.33396 27.4403 1.35481 27.521C1.14637 26.7346 1.62577 25.8273 3.9602 25.0612C9.27521 23.3071 16.0701 23.2466 16.5078 23.2466C17.5083 23.1458 18.4879 22.9845 19.4675 22.7425C21.927 22.1175 23.8654 20.2828 24.5116 17.9036C25.0326 15.9076 25.2828 13.8309 25.2619 11.7743C25.2619 9.17341 24.9701 7.21768 24.5949 5.76601Z" fill="#0050A2"/>
<path d="M1.33495 27.5206C1.96025 29.0731 3.75276 29.8392 5.35769 29.2545C5.81623 29.0932 6.2331 28.811 6.54575 28.4682C8.75512 26.1092 11.6106 23.4277 13.2781 23.4277C14.3619 23.4277 15.4249 23.3672 16.4879 23.2664C16.0294 23.2664 9.23451 23.1252 3.94035 24.8794C1.60591 25.6254 1.12652 26.7141 1.33495 27.5206Z" fill="#9ECE6F"/>
</svg>
