<svg width="147" height="104" viewBox="0 0 147 104" fill="none" xmlns="http://www.w3.org/2000/svg">
<path d="M146.334 103.006H0.333984C3.61627 98.9948 5.43244 97.4027 8.53511 93.3049C13.2631 87.0705 21.5583 86.1543 24.7065 87.7184C27.8546 89.2799 30.5122 91.5535 33.5436 93.3076C43.3816 98.9945 56.4387 93.7236 65.6377 88.0563C73.7961 83.0342 76.6047 90.7014 80.3576 86.9864C89.2375 78.1991 104.576 86.2211 107.992 89.5533C119.678 100.941 129.173 85.5446 135.273 93.1865C139.079 97.9548 140.403 100.684 146.334 103.006V103.006Z" fill="#F3F9ED"/>
<path d="M7.33398 52.6982H57.334C57.1237 51.2982 56.7426 49.9095 55.9182 48.6409C55.0001 47.2178 53.452 45.9548 51.4371 45.4065C49.4222 44.8577 46.9329 45.138 45.4858 46.3096C44.0619 47.4637 43.7587 49.2985 41.9926 50.1667C40.0398 51.1324 37.3171 50.3782 35.6289 49.1779C33.9408 47.9837 32.8128 46.4004 31.039 45.2633C28.3937 43.5665 24.3948 43.1096 21.1739 44.1323C17.8834 45.1724 15.7202 47.4693 13.3555 49.4407C11.6987 50.8177 9.63663 52.1381 7.33398 52.6982Z" fill="#F3F9ED"/>
<path d="M146.334 36.6982H96.334C96.5443 35.2982 96.9254 33.9095 97.7497 32.6409C98.6679 31.2178 100.216 29.9548 102.231 29.4065C104.246 28.8577 106.735 29.138 108.182 30.3096C109.606 31.4637 109.909 33.2985 111.675 34.1667C113.628 35.1324 116.351 34.3782 118.039 33.1779C119.727 31.9837 120.855 30.4004 122.629 29.2633C125.274 27.5665 129.273 27.1096 132.494 28.1323C135.785 29.1724 137.948 31.4693 140.312 33.4407C141.969 34.8177 144.031 36.1381 146.334 36.6982Z" fill="#F3F9ED"/>
<path d="M33.4512 94.3828L88.5298 98.5561L98.0932 101.425L96.8923 103.451L39.5323 99.0697C38.8062 99.0103 38.1019 98.7781 37.4907 98.3806C35.886 97.3368 34.5612 95.9796 33.4512 94.3828Z" fill="#1961AC"/>
<path d="M120.462 64.5827C119.007 64.553 126.277 64.702 103.208 64.2279C100.874 60.9944 98.851 53.3939 98.2867 44.7608L100.718 44.7064C100.835 44.7064 100.854 44.5332 100.715 44.5114L98.2751 44.5658C97.497 32.2083 99.7301 17.7976 108.336 11.0621C109.066 10.4938 111.392 9.87766 112.172 9.87766C115.148 9.74533 117.463 12.4839 118.314 15.0785C118.867 16.7617 118.98 18.5577 118.945 20.3263C118.684 32.7084 111.801 42.6458 113.809 52.7234C114.712 57.2427 117.046 61.481 120.462 64.5822L120.462 64.5827Z" fill="#1961AC"/>
<path d="M58.5397 12.6273C51.0805 12.9946 51.1255 27.2126 51.4088 34.2452L51.79 74.9365C51.5526 85.4242 50.226 93.0209 46.2852 95.5882L88.531 98.5566C103.781 113.715 105.937 91.1311 106.166 64.2933C106.225 57.1915 106.15 49.793 106.147 42.7186C106.214 23.3833 105.981 22.2564 106.411 18.9853C106.883 15.3241 108.681 11.0138 112.068 9.88086L58.5397 12.6273Z" fill="#CBE0E9"/>
<path d="M97.9988 87.7947C94.7646 85.0996 91.7101 72.2975 91.2609 66.2334C88.3427 66.9072 82.6412 68.2548 83.1802 68.2548C83.7192 78.4964 86.9951 88.6931 89.2395 92.5113C88.1614 90.3552 90.1379 86.6718 90.5871 85.0996C92.7432 87.2557 96.8758 87.7947 97.9988 87.7947Z" fill="#9ECE6F"/>
<path d="M66.9739 87.7947C70.2081 85.0996 73.2626 72.2975 73.7118 66.2334C76.6299 66.9072 82.3315 68.2548 81.7924 68.2548C81.2534 78.4964 77.9775 88.6931 75.7332 92.5113C76.8112 90.3552 74.8348 86.6718 74.3856 85.0996C72.2294 87.2557 68.0968 87.7947 66.9739 87.7947Z" fill="#9ECE6F"/>
<circle cx="81.8294" cy="64.2122" r="12.1283" fill="#1961AC"/>
<circle cx="81.8296" cy="64.2124" r="9.03309" stroke="white" stroke-width="0.8"/>
<path d="M95.9473 16.6115L96.2754 16.7986L95.9473 16.6074V16.611V16.6115Z" fill="#EAA468"/>
<path d="M92.4316 21.7115L92.78 21.9164L92.5491 21.5898C92.5106 21.6309 92.4701 21.6725 92.4316 21.7121V21.7115Z" fill="#EAA468"/>
<path d="M97.166 13.5927L97.5681 13.6266L97.2172 13.4248C97.2005 13.4811 97.1837 13.5369 97.166 13.5927Z" fill="#EAA468"/>
<path d="M90.0078 23.8637L90.4165 24.1015L90.2949 23.6543C90.1992 23.7273 90.1045 23.7943 90.0078 23.8642V23.8637Z" fill="#EAA468"/>
<path d="M97.8242 10.6027L98.2739 10.481L97.8627 10.2422C97.8516 10.3624 97.8399 10.4825 97.8242 10.6027Z" fill="#EAA468"/>
<path d="M94.104 17.1529C94.4357 16.5804 94.7345 15.9871 94.9963 15.3867C94.9811 15.4202 94.9659 15.4511 94.9502 15.4841C94.6985 16.0515 94.4165 16.6118 94.1035 17.1529H94.104Z" fill="#EAA468"/>
<path d="M95.4883 14.0995C95.4912 14.0912 95.4941 14.083 95.497 14.0742C95.4941 14.0825 95.4912 14.0907 95.4883 14.0995Z" fill="#EAA468"/>
<path d="M94.9941 15.3912C95.18 14.9647 95.3436 14.5327 95.4899 14.0996C95.3917 14.3856 95.2838 14.6696 95.1704 14.9541C95.1106 15.1011 95.0569 15.2466 94.9941 15.3912Z" fill="#EAA468"/>
<path d="M95.498 14.0736C95.5289 13.9828 95.5588 13.8916 95.5882 13.8008C95.5593 13.8921 95.5289 13.9828 95.498 14.0736Z" fill="#EAA468"/>
<path d="M96.0918 11.7384C96.1708 11.2379 96.2103 10.7451 96.2235 10.2598C96.2118 10.704 96.1738 11.1568 96.107 11.6157C96.1019 11.6568 96.0994 11.6969 96.0918 11.7384Z" fill="#EAA468"/>
<path d="M87.5254 25.3702L87.9401 25.6136V25.0791C87.8085 25.1394 87.6783 25.1917 87.5497 25.2454L87.5254 25.3702Z" fill="#EAA468"/>
<path d="M97.8145 7.44866C97.8337 7.58608 97.8514 7.72553 97.8656 7.86802L98.3305 7.60028L97.9142 7.3584L97.8145 7.44866Z" fill="#EAA468"/>
<path d="M85.1621 26.1195L85.5338 26.3401L85.6523 25.7539C85.5297 25.7717 85.4097 25.7828 85.2897 25.7899L85.1621 26.1195Z" fill="#EAA468"/>
<path d="M97.1406 5.23358C97.1943 5.34109 97.2454 5.45112 97.2941 5.56471L97.7397 5.16817L97.368 4.95215L97.1406 5.23358Z" fill="#EAA468"/>
<path d="M82.9941 26.0311L83.3542 26.24L83.5841 25.6421C83.4793 25.6132 83.3744 25.5828 83.2737 25.5488L82.9941 26.0311Z" fill="#EAA468"/>
<path d="M95.9121 3.61376C95.9952 3.68424 96.0757 3.75828 96.1521 3.83333L96.3319 3.61072L96.5542 3.33587L96.1942 3.12695L95.9121 3.61325V3.61376Z" fill="#EAA468"/>
<path d="M94.3262 5.39895C94.3434 5.41061 94.3611 5.42227 94.3788 5.43343C94.3611 5.42176 94.3439 5.4101 94.3262 5.39844V5.39895Z" fill="#EAA468"/>
<path d="M94.377 5.43262C94.4023 5.44935 94.4281 5.46609 94.4534 5.48333C94.4281 5.46609 94.4028 5.44935 94.377 5.43262Z" fill="#EAA468"/>
<path d="M94.4551 5.4834C94.4839 5.50267 94.5123 5.52295 94.5391 5.54476C94.5118 5.52244 94.4834 5.50267 94.4551 5.4834Z" fill="#EAA468"/>
<path d="M95.1729 6.21933C95.1855 6.23607 95.1982 6.25229 95.2114 6.26852C95.1982 6.25128 95.1845 6.23404 95.1719 6.2168C95.1719 6.2168 95.1734 6.21832 95.1734 6.21933H95.1729Z" fill="#EAA468"/>
<path d="M95.2051 6.26758C95.2486 6.32336 95.2932 6.37812 95.3352 6.43847C95.2937 6.37812 95.2491 6.32387 95.2051 6.26758Z" fill="#EAA468"/>
<path d="M94.9698 5.94814C94.9679 5.94661 94.9671 5.94392 94.9648 5.94238C94.9668 5.94392 94.9675 5.94661 94.9698 5.94814Z" fill="#EAA468"/>
<path d="M95.5127 6.73695C95.5456 6.79831 95.5816 6.85459 95.615 6.91494C95.5816 6.85307 95.5456 6.79577 95.5117 6.7334C95.5117 6.7334 95.5122 6.73441 95.5132 6.73644L95.5127 6.73695Z" fill="#EAA468"/>
<path d="M95.6133 6.91211C95.6254 6.93391 95.6366 6.95673 95.6477 6.98006C95.6371 6.95673 95.6249 6.93391 95.6133 6.91211Z" fill="#EAA468"/>
<path d="M93.2466 4.88845H93.2481C93.1615 4.86614 93.076 4.83368 92.9863 4.81543C93.076 4.83318 93.16 4.86614 93.2466 4.88845Z" fill="#EAA468"/>
<path d="M94.0786 5.22559C94.1652 5.27528 94.2457 5.33917 94.3288 5.39901C94.2457 5.33968 94.1652 5.27579 94.0796 5.22559H94.0781H94.0786Z" fill="#EAA468"/>
<path d="M93.7835 5.07126C93.7086 5.03576 93.6356 4.99672 93.5566 4.9668C93.6361 4.99672 93.7091 5.03678 93.7835 5.07126Z" fill="#EAA468"/>
<path d="M93.8003 5.08421C93.7957 5.08218 93.7917 5.08015 93.7871 5.07812C93.7922 5.08066 93.7978 5.0832 93.8028 5.08573C93.8028 5.08573 93.802 5.08523 93.8003 5.08421Z" fill="#EAA468"/>
<path d="M95.1699 14.9489C95.3553 14.49 95.5259 14.026 95.6652 13.5615C95.6424 13.6406 95.6115 13.7162 95.5887 13.7953C95.4662 14.1822 95.3234 14.5656 95.1699 14.9484V14.9489Z" fill="#EAA468"/>
<path d="M94.9502 15.4893C94.6985 16.0567 94.4165 16.617 94.1035 17.1581C94.4165 16.6165 94.6985 16.0567 94.9502 15.4893Z" fill="#EAA468"/>
<path d="M96.0996 11.6051C96.1842 11.0422 96.2297 10.4839 96.2287 9.94336C96.2287 10.0417 96.2196 10.1452 96.2161 10.2496C96.2044 10.6939 96.1665 11.1467 96.0996 11.6056V11.6051Z" fill="#EAA468"/>
<path d="M95.1578 6.21942C95.1097 6.15654 95.0652 6.09163 95.0176 6.03027C95.0657 6.09265 95.1108 6.15857 95.1594 6.22246C95.1594 6.22094 95.1578 6.21992 95.1578 6.21992V6.21942Z" fill="#EAA468"/>
<path d="M95.0176 6.02148C95.0191 6.02379 95.0206 6.02571 95.0226 6.02801C95.021 6.02571 95.0195 6.02379 95.0176 6.02148Z" fill="#EAA468"/>
<path d="M95.3398 6.44531C95.3996 6.54115 95.4523 6.65018 95.5085 6.75159C95.5085 6.75159 95.508 6.75058 95.507 6.74855C95.4507 6.64764 95.3996 6.54014 95.3398 6.44531Z" fill="#EAA468"/>
<path d="M92.3281 0.906912L94.4357 2.13356L94.262 2.58183L94.5583 2.75424L94.8429 2.26084L92.3762 0.823242L92.3281 0.906912Z" fill="#EAA468"/>
<path d="M93.7891 5.08988C93.8833 5.13451 93.9806 5.17304 94.0702 5.22426H94.0717C93.98 5.17203 93.8828 5.13349 93.7871 5.08887C93.7871 5.08887 93.788 5.08937 93.7896 5.09039L93.7891 5.08988Z" fill="#EAA468"/>
<path d="M93.2505 4.88379C93.3528 4.91371 93.4586 4.93551 93.5569 4.97405C93.4586 4.93551 93.3538 4.91371 93.2515 4.88379H93.25H93.2505Z" fill="#EAA468"/>
<path d="M80.332 22.9551L80.65 23.1392C80.5954 23.0317 80.5452 22.9216 80.4966 22.8096L80.332 22.9551Z" fill="#EAA468"/>
<path d="M81.5957 24.5885L81.8793 24.7533C81.7988 24.6823 81.7172 24.6083 81.6393 24.5332L81.5957 24.588V24.5885Z" fill="#EAA468"/>
<path d="M94.2613 2.58008L94.2051 2.72713C94.3099 2.75756 94.4147 2.78849 94.5155 2.8245L94.5575 2.753L94.2613 2.58059V2.58008Z" fill="#EAA468"/>
<path d="M92.1328 2.61418C92.2554 2.59744 92.3764 2.58629 92.4954 2.57716L92.1774 2.39258L92.1328 2.61418Z" fill="#EAA468"/>
<path d="M89.8555 3.29577C89.9856 3.23644 90.1147 3.18117 90.2434 3.12843L89.8555 2.9043V3.29628V3.29577Z" fill="#EAA468"/>
<path d="M88.8672 3.80244C89.1994 3.61279 89.5271 3.44393 89.8491 3.29688C89.5276 3.44393 89.1994 3.61279 88.8672 3.80244Z" fill="#EAA468"/>
<path d="M79.5904 20.7031L79.9782 20.9287C79.959 20.7908 79.9413 20.6508 79.9271 20.5068L79.5898 20.7031H79.5904Z" fill="#EAA468"/>
<path d="M85.3164 3.0731L87.3744 4.27033L87.4959 4.71607C87.625 4.61921 87.7537 4.52489 87.8853 4.4326L85.4177 2.99805C85.3832 3.02188 85.3503 3.04774 85.3169 3.0731H85.3164Z" fill="#EAA468"/>
<path d="M82.8848 5.22158L85.003 6.45279L85.2339 6.78088C85.3539 6.65056 85.4749 6.52277 85.5965 6.39803L83.1299 4.96094C83.0468 5.04613 82.9653 5.13386 82.8848 5.22158Z" fill="#EAA468"/>
<path d="M80.75 7.92357L83.2166 9.35914C83.3189 9.20651 83.4222 9.05489 83.527 8.90428L81.0614 7.46973C80.9556 7.61983 80.8508 7.76992 80.75 7.92357Z" fill="#EAA468"/>
<path d="M81.2308 25.027L79.1227 23.7998L79.0781 23.8779L81.5447 25.3145L81.8714 24.7481L81.5883 24.5833L81.2308 25.027Z" fill="#DC6803"/>
<path d="M80.041 23.2108L77.9461 21.9912L77.7734 22.2077L80.2401 23.6423L80.6396 23.1448L80.3221 22.9608L80.041 23.2108Z" fill="#DC6803"/>
<path d="M77.7734 22.2041L78.7619 23.593L79.1204 23.8024L81.2285 25.0296L80.2401 23.6387L77.7734 22.2041Z" fill="#EDB381"/>
<path d="M95.5068 6.74253C95.4506 6.64111 95.3984 6.53208 95.3382 6.43624C95.2845 6.35815 95.2257 6.29071 95.1695 6.21667C95.1022 6.12844 95.0419 6.03514 94.969 5.95349C94.9665 5.95147 94.9655 5.94792 94.9624 5.94589C94.8308 5.79731 94.688 5.65938 94.5386 5.54072C94.4707 5.48596 94.3968 5.44235 94.3254 5.39417C94.2423 5.33484 94.1618 5.27095 94.0752 5.22075C93.9856 5.16953 93.8889 5.1315 93.7942 5.08637C93.7137 5.04935 93.6357 5.00625 93.5516 4.9743C93.4534 4.93576 93.3486 4.91396 93.2463 4.88404C93.1597 4.86173 93.0741 4.82928 92.9845 4.81102C92.9804 4.81102 92.9779 4.80849 92.9743 4.80849C92.5824 4.7309 92.1661 4.71062 91.7256 4.75017C91.0658 4.8095 90.3594 5.00574 89.619 5.34904C89.3714 5.46314 89.1222 5.59092 88.8696 5.73646C87.6016 6.4692 86.4121 7.52902 85.3724 8.7795C85.1658 9.0295 84.9638 9.28761 84.7688 9.5518C84.184 10.3459 83.6609 11.2009 83.2127 12.0842C83.0643 12.3809 82.9241 12.68 82.7924 12.9797C82.5306 13.5811 82.3047 14.1922 82.1209 14.8053C81.7533 16.0319 81.5502 17.2601 81.5528 18.4259C81.5593 20.757 82.3853 22.3918 83.7181 23.1504C85.0534 23.9111 86.8896 23.7954 88.9167 22.6236C90.9417 21.4552 92.7733 19.4477 94.096 17.151C94.4089 16.6095 94.691 16.0496 94.9427 15.4822C94.9579 15.4498 94.9731 15.4183 94.9888 15.3849C95.0515 15.2403 95.1052 15.0948 95.165 14.9477C95.3503 14.4888 95.521 14.0248 95.6602 13.5603C95.8456 12.9478 95.9868 12.3337 96.0841 11.7282C96.0917 11.6866 96.0942 11.6466 96.0993 11.6055C96.1838 11.0426 96.2294 10.4843 96.2284 9.94378V9.94226C96.2243 8.77494 96.0177 7.78307 95.6425 6.98796C95.6015 6.89972 95.5508 6.82569 95.5058 6.74202L95.5068 6.74253Z" fill="#EAA468"/>
<path d="M88.8691 4.82271C84.3764 7.42104 80.7456 13.7171 80.7598 18.8884C80.774 24.0521 84.4301 26.1382 88.9228 23.5399C93.4079 20.9471 97.0402 14.6455 97.026 9.48185C97.0118 4.31309 93.3567 2.22793 88.8691 4.82271ZM96.2305 9.94381V9.94533C96.2305 10.0437 96.2214 10.1472 96.2178 10.2516C96.2051 10.7369 96.1657 11.2298 96.0861 11.7303C95.9889 12.3358 95.8476 12.9498 95.6623 13.5624C95.6395 13.6415 95.6086 13.7171 95.5858 13.7962C95.4147 14.3286 95.2192 14.8616 94.9908 15.3864C94.729 15.9868 94.4303 16.5796 94.0986 17.1526C92.7759 19.4492 90.9438 21.4568 88.9192 22.6251C86.8917 23.797 85.056 23.9126 83.7207 23.152C82.3878 22.3934 81.5619 20.7585 81.5553 18.4274C81.5528 17.2616 81.7559 16.0334 82.1235 14.8068C82.3073 14.1937 82.5332 13.5827 82.795 12.9813C82.9266 12.6816 83.0669 12.3824 83.2153 12.0858C83.6634 11.2024 84.187 10.3469 84.7714 9.55335C84.9669 9.28916 85.1684 9.03105 85.375 8.78105C86.4141 7.53057 87.6041 6.47075 88.8721 5.73801C89.1248 5.59247 89.374 5.46469 89.6216 5.35059C90.3619 5.00729 91.0678 4.81105 91.7282 4.75172C92.1687 4.71217 92.585 4.73245 92.9769 4.81003C92.9805 4.81003 92.9835 4.81257 92.9871 4.81257C93.0767 4.83032 93.1607 4.86328 93.2473 4.88559C93.3496 4.91551 93.4555 4.93731 93.5537 4.97585C93.6383 5.0078 93.7147 5.0509 93.7937 5.0864C93.8894 5.13102 93.9867 5.16956 94.0783 5.22179C94.1639 5.27149 94.2444 5.33538 94.3275 5.3942C94.3979 5.44288 94.4718 5.48497 94.5407 5.54126C94.69 5.65992 94.8328 5.79835 94.9645 5.94642C94.967 5.94845 94.968 5.952 94.9711 5.95403C95.0425 6.03466 95.1027 6.12644 95.1701 6.21467C95.2248 6.28871 95.285 6.35869 95.3397 6.43728C95.3995 6.53211 95.4506 6.63911 95.5068 6.74053C95.5529 6.8247 95.6025 6.90026 95.6446 6.99001C96.0198 7.78513 96.2269 8.7775 96.2305 9.94432V9.94381Z" fill="#FBF0E6"/>
<path d="M92.3809 0.823242L94.8475 2.26084L96.2431 3.05494L93.7749 1.62089L92.3809 0.823242Z" fill="#EAA468"/>
<path d="M91.9697 0.696354L90.2637 0.549805L92.7303 1.98639L94.4373 2.13192L92.3297 0.905274L91.9697 0.696354Z" fill="#EDB381"/>
<path d="M90.1621 0.814506L92.2586 2.03406L92.1856 2.39409L92.5036 2.57867L92.732 1.98639L90.2654 0.549805L90.1621 0.814506Z" fill="#DC6803"/>
<path d="M77.0566 19.8838L77.5727 21.7742L77.9454 21.9913L80.0403 23.2108L79.5243 21.3194L77.0566 19.8838Z" fill="#EDB381"/>
<path d="M79.4554 20.7621L77.404 19.5674L77.0566 19.8742L79.5243 21.3097L79.9714 20.9147L79.583 20.6891L79.4554 20.7621Z" fill="#DC6803"/>
<path d="M87.7988 1.56865L89.8527 2.76335V2.90736L90.2411 3.1315L90.3586 2.55037L87.8895 1.11328L87.7988 1.56865Z" fill="#DC6803"/>
<path d="M89.7946 0.592773L87.8926 1.10544L90.3617 2.54253L92.2627 2.02987L90.1663 0.810315L89.7946 0.592773Z" fill="#EDB381"/>
<path d="M77.4314 17.3328L76.9883 17.0762L76.9949 19.3332L77.4111 19.5756L79.4625 20.7703L79.4574 18.5107L77.4314 17.3328Z" fill="#EDB381"/>
<path d="M87.3853 1.32617L85.418 2.46408L87.8846 3.89813L89.8529 2.76124L87.799 1.56653L87.3853 1.32617Z" fill="#EDB381"/>
<path d="M85.418 2.46094L85.419 2.99541L87.8871 4.42946L87.8846 3.89499L85.418 2.46094Z" fill="#DC6803"/>
<path d="M77.5507 13.9707L77.0488 16.4514L77.4585 16.6897L79.5139 17.888L80.0183 15.4053L77.9183 14.1837L77.5507 13.9707Z" fill="#EDB381"/>
<path d="M84.9107 2.82812L83.0117 4.51217L85.4799 5.94977L87.3768 4.2642L85.3188 3.06696L84.9107 2.82812Z" fill="#EDB381"/>
<path d="M83.0117 4.51758L83.1332 4.9628L85.5999 6.39989L85.4799 5.95518L83.0117 4.51758Z" fill="#DC6803"/>
<path d="M78.7327 10.7793L77.7559 13.3066L78.1058 13.51L80.2225 14.7427L81.2003 12.2149L79.0684 10.9705L78.7327 10.7793Z" fill="#EDB381"/>
<path d="M82.5354 5.02051L80.8359 7.13659L83.3026 8.57318L85.0035 6.45608L82.8853 5.22486L82.5354 5.02051Z" fill="#EDB381"/>
<path d="M80.8359 7.12793L81.0699 7.45754L83.535 8.89209L83.3026 8.56451L80.8359 7.12793Z" fill="#DC6803"/>
<path d="M79.0449 10.1292L79.3731 10.3193L81.5115 11.5648L82.898 9.16166L80.4314 7.72559L79.0449 10.1292Z" fill="#EDB381"/>
<path d="M80.4258 7.72559L82.8924 9.16166L83.2205 9.34929L80.7539 7.91372L80.4258 7.72559Z" fill="#EAA468"/>
<path d="M97.8716 10.1355L98.335 9.86729L98.3299 7.6082L97.865 7.87595C97.8509 7.73346 97.8331 7.59401 97.8139 7.45658L97.9137 7.36632L98.261 7.06207L97.7455 5.1686L97.2999 5.56514C97.2513 5.45155 97.2007 5.34151 97.1465 5.23401L97.3738 4.95258L97.5475 4.73757L96.5581 3.34662L96.3357 3.62147L96.156 3.84408C96.0795 3.76852 95.999 3.69449 95.9159 3.62451L96.198 3.13821L96.2441 3.05961L94.8485 2.26551L94.5639 2.75891L94.5219 2.83041C94.7006 2.89075 94.8642 2.97594 95.0288 3.0591C94.8642 2.97594 94.7006 2.89024 94.5219 2.83041C94.4211 2.79491 94.3163 2.76398 94.2114 2.73305L94.2677 2.58599L94.4413 2.13772L92.7343 1.99219L92.5059 2.58447C92.3874 2.5936 92.2659 2.60475 92.1434 2.62149L92.1879 2.39989L92.2608 2.03985L90.3599 2.55252L90.2424 3.13365C90.1132 3.18689 89.9846 3.24166 89.8545 3.30099V2.7655L87.8862 3.90239L87.8887 4.43687C87.757 4.52916 87.6284 4.62348 87.4993 4.72033L87.3777 4.2746L85.4803 5.96016L85.6003 6.40437C85.4788 6.52912 85.3578 6.6569 85.2377 6.78723L85.0068 6.45914L83.3064 8.57624L83.5388 8.90331C83.434 9.05392 83.3307 9.20554 83.2284 9.35817L82.9003 9.17105L81.5138 11.5742L81.8434 11.7608C81.7629 11.9256 81.6824 12.0904 81.6059 12.2582L81.2039 12.2247L80.226 14.7521L80.6271 14.7866C80.5749 14.9539 80.5248 15.1217 80.4777 15.2916L80.0311 15.4093L79.5267 17.892L79.9774 17.7672C79.9566 17.929 79.9404 18.0872 79.9262 18.248L79.4629 18.5147L79.468 20.7743L79.5956 20.7013L79.9328 20.505C79.947 20.6485 79.9647 20.789 79.984 20.9269L79.5373 21.3219L80.0533 23.2134L80.3344 22.9634L80.499 22.8179C80.5476 22.9304 80.5972 23.0405 80.6524 23.1475L80.2529 23.6449L81.2408 25.0359L81.5983 24.5922L81.6419 24.5374C81.7199 24.6124 81.8014 24.6865 81.8819 24.7575L81.5553 25.3239L82.9509 26.118L82.998 26.0353L83.2775 25.5531C83.3783 25.5871 83.4831 25.6175 83.5879 25.6464L83.358 26.2443L85.0661 26.3913L85.1668 26.1246L85.2945 25.795C85.4145 25.7879 85.5345 25.7772 85.657 25.759L85.5385 26.3452L87.441 25.832L87.5352 25.3705L87.5595 25.2458C87.6887 25.192 87.8188 25.1398 87.95 25.0795V25.6139L89.9163 24.476L89.9147 23.9405C89.9482 23.9203 89.9826 23.8939 90.0145 23.8701C90.1117 23.8001 90.2059 23.7331 90.3016 23.6601L90.4232 24.1074L92.3206 22.4213L92.2006 21.9771C92.2821 21.8919 92.3641 21.8052 92.4442 21.7175C92.4826 21.6779 92.5231 21.6363 92.5616 21.5953L92.7925 21.9218L94.493 19.8052L94.2606 19.4766C94.3664 19.3286 94.4687 19.1764 94.571 19.0208L94.8991 19.2094L96.2846 16.8068L95.9565 16.6197V16.6161C96.038 16.4549 96.1175 16.2896 96.1965 16.1248L96.596 16.1587L97.5754 13.6299L97.1733 13.5959C97.191 13.5396 97.2077 13.4844 97.2245 13.4281C97.2579 13.3155 97.2918 13.2029 97.3227 13.0919L97.7693 12.9722L98.2737 10.491L97.824 10.6127C97.8392 10.4925 97.8509 10.3723 97.8625 10.2522C97.8666 10.2126 97.8716 10.1731 97.8742 10.1345L97.8716 10.1355ZM88.9298 24.115C84.1627 26.8695 80.2929 24.6566 80.2777 19.1795C80.261 13.6943 84.108 7.02657 88.8721 4.27003C93.6326 1.51755 97.5075 3.72593 97.5217 9.20706C97.5369 14.6877 93.6878 21.3635 88.9293 24.115H88.9298Z" fill="#F3CE90"/>
<path d="M88.8679 4.25936C84.1033 7.0159 80.2568 13.6836 80.2735 19.1688C80.2887 24.6459 84.1585 26.8588 88.9256 24.1043C93.6837 21.3523 97.5332 14.677 97.518 9.19638C97.5039 3.71576 93.629 1.50688 88.8684 4.25936H88.8679ZM88.9241 23.5384C84.4314 26.1367 80.7748 24.0506 80.7611 18.8869C80.747 13.7156 84.3778 7.41954 88.8704 4.82121C93.3581 2.22644 97.0132 4.31159 97.0273 9.48035C97.0415 14.644 93.4092 20.9456 88.9241 23.5384Z" fill="#EAA468"/>
<path d="M77.4609 16.6924C77.4583 16.7324 77.4518 16.7725 77.4492 16.81L79.9158 18.2461C79.93 18.0859 79.9462 17.9271 79.967 17.7654L79.5163 17.8901L77.4609 16.6924Z" fill="#EAA468"/>
<path d="M76.9883 17.0803L77.4314 17.3369L79.4574 18.5148L79.9208 18.2481L77.4547 16.8115L76.9883 17.0803Z" fill="#DC6803"/>
<path d="M77.5605 13.9712L77.9282 14.1842L80.0282 15.4058L80.4753 15.2881L78.0072 13.8516L77.5605 13.9712Z" fill="#DC6803"/>
<path d="M78.1032 13.5186C78.0702 13.6296 78.0368 13.7427 78.0039 13.8542L80.4715 15.2903C80.5186 15.1205 80.5688 14.9526 80.6209 14.7853L80.2199 14.7508L78.1032 13.5186Z" fill="#EAA468"/>
<path d="M79.3664 10.3198C79.2849 10.4836 79.2069 10.6469 79.1289 10.8132L81.5965 12.2488C81.673 12.0815 81.7535 11.9162 81.834 11.7514L81.5044 11.5647L79.3659 10.3193L79.3664 10.3198Z" fill="#DC6803"/>
<path d="M78.7383 10.7793L79.074 10.9705L81.2059 12.2149L81.608 12.2483L79.1404 10.8128L78.7383 10.7793Z" fill="#EAA468"/>
<path d="M88.8643 4.70123C84.3089 7.33302 80.6284 13.7183 80.6426 18.9494C80.6568 24.1912 84.3615 26.3048 88.918 23.672C93.4735 21.0371 97.1539 14.6539 97.1387 9.4131C97.1235 4.18095 93.4183 2.0669 88.8643 4.70072V4.70123ZM88.9155 22.923C84.719 25.3509 81.3075 23.4037 81.2923 18.5732C81.2797 13.7538 84.6679 7.87561 88.8659 5.44918C93.0623 3.02276 96.4748 4.971 96.4875 9.79038C96.5002 14.6184 93.1119 20.4966 88.9155 22.9235V22.923Z" fill="#EDB381"/>
<path d="M88.8646 5.4478C84.6666 7.87423 81.2784 13.7524 81.2911 18.5718C81.3062 23.4023 84.7178 25.3495 88.9142 22.9216C93.1107 20.4952 96.4989 14.617 96.4862 9.78849C96.4736 4.96911 93.0605 3.02087 88.8646 5.4473V5.4478ZM88.9097 21.5459C85.3796 23.5874 82.4993 21.9526 82.4892 17.8816C82.4765 13.8199 85.3386 8.86305 88.8676 6.82405C92.4068 4.77845 95.279 6.41635 95.2922 10.4776C95.3023 14.549 92.4488 19.4998 88.9102 21.5454L88.9097 21.5459Z" fill="#F3CE90"/>
<path d="M88.8648 6.82894C85.3363 8.86744 82.4737 13.8247 82.4864 17.8865C82.4965 21.9569 85.3768 23.5923 88.9069 21.5508C92.446 19.5052 95.299 14.5544 95.2889 10.483C95.2762 6.42124 92.4035 4.78384 88.8643 6.82944L88.8648 6.82894Z" fill="#EDB381"/>
<path d="M107.286 23.2323V23.2305L107.125 23.3243L107.286 23.2323Z" fill="#EAA468"/>
<path d="M108.84 25.836L109.011 25.7357C108.992 25.7162 108.972 25.6957 108.953 25.6758L108.84 25.836Z" fill="#EAA468"/>
<path d="M106.494 21.7634L106.692 21.7467C106.683 21.7193 106.675 21.6919 106.667 21.6641L106.494 21.7634Z" fill="#EAA468"/>
<path d="M110.01 26.9071L110.211 26.7906C110.163 26.7562 110.116 26.7233 110.07 26.6875L110.01 26.9071H110.01Z" fill="#EAA468"/>
<path d="M106.154 20.2229L106.375 20.2824C106.368 20.2234 106.362 20.1644 106.356 20.1055L106.154 20.2229Z" fill="#EAA468"/>
<path d="M107.762 22.6338C107.89 22.9286 108.037 23.2198 108.2 23.5011C108.046 23.2351 107.908 22.9602 107.784 22.6816C107.777 22.6658 107.77 22.65 107.762 22.6338Z" fill="#EAA468"/>
<path d="M107.518 22.0171C107.5 21.9637 107.482 21.9098 107.465 21.8564C107.482 21.9103 107.5 21.9637 107.518 22.0171Z" fill="#EAA468"/>
<path d="M107.666 22.419C107.612 22.2844 107.561 22.1493 107.514 22.0137C107.585 22.2217 107.663 22.4292 107.752 22.634C107.722 22.563 107.695 22.4915 107.666 22.4195V22.419Z" fill="#EAA468"/>
<path d="M107.154 20.1162C107.16 20.3442 107.179 20.5764 107.215 20.8113C107.214 20.8015 107.213 20.7918 107.211 20.782C107.179 20.5569 107.16 20.3344 107.154 20.1162Z" fill="#EAA468"/>
<path d="M107.213 20.8125C107.214 20.8227 107.215 20.8329 107.217 20.8436C107.215 20.8334 107.214 20.8232 107.213 20.8125Z" fill="#EAA468"/>
<path d="M111.219 27.3838V27.6461L111.423 27.5268L111.411 27.4655C111.348 27.439 111.284 27.4135 111.219 27.3838H111.219Z" fill="#EAA468"/>
<path d="M106.121 18.8059L106.349 18.9373C106.356 18.8672 106.365 18.7989 106.374 18.7316L106.326 18.6875L106.121 18.8064V18.8059Z" fill="#EAA468"/>
<path d="M112.348 27.7236L112.406 28.0115L112.588 27.9033L112.526 27.7413C112.467 27.738 112.408 27.7325 112.348 27.7236Z" fill="#EAA468"/>
<path d="M106.412 17.6078L106.631 17.8024C106.655 17.7467 106.68 17.6923 106.706 17.6399L106.594 17.502L106.412 17.6078Z" fill="#EAA468"/>
<path d="M113.36 27.67L113.473 27.9634L113.649 27.8608L113.512 27.624C113.462 27.6407 113.411 27.6556 113.359 27.67H113.36Z" fill="#EAA468"/>
<path d="M112.953 27.7366C113.094 27.7245 113.229 27.7013 113.358 27.666C113.228 27.7013 113.094 27.7245 112.953 27.7366Z" fill="#EAA468"/>
<path d="M106.992 16.7174L107.101 16.8525L107.19 16.9616C107.227 16.9245 107.267 16.8883 107.307 16.8539L107.169 16.6152L106.992 16.7178V16.7174Z" fill="#EAA468"/>
<path d="M108.085 17.7246C108.069 17.7358 108.052 17.7464 108.035 17.7576C108.052 17.7464 108.069 17.7358 108.085 17.7246Z" fill="#EAA468"/>
<path d="M108.031 17.7578C108.012 17.7699 107.994 17.7824 107.977 17.7968C107.994 17.7824 108.013 17.7699 108.031 17.7578Z" fill="#EAA468"/>
<path d="M107.673 18.1313L107.673 18.1299C107.665 18.1415 107.655 18.1531 107.646 18.1647C107.655 18.1536 107.664 18.1429 107.673 18.1313Z" fill="#EAA468"/>
<path d="M107.771 18.0038C107.771 18.0038 107.773 18.0009 107.775 18C107.773 18.0009 107.773 18.0028 107.771 18.0038Z" fill="#EAA468"/>
<path d="M107.507 18.391C107.507 18.391 107.507 18.3906 107.507 18.3896C107.484 18.431 107.46 18.4681 107.439 18.5122C107.459 18.469 107.484 18.4324 107.507 18.3915V18.391Z" fill="#EAA468"/>
<path d="M108.618 17.4801C108.66 17.4689 108.702 17.4532 108.746 17.4443C108.702 17.4532 108.66 17.4689 108.617 17.4801H108.618Z" fill="#EAA468"/>
<path d="M108.086 17.7271C108.127 17.6983 108.166 17.6667 108.209 17.6426H108.208C108.166 17.6672 108.127 17.6983 108.086 17.7271Z" fill="#EAA468"/>
<path d="M108.361 17.5693C108.396 17.553 108.43 17.5349 108.467 17.5205C108.43 17.5344 108.396 17.5525 108.361 17.5693Z" fill="#EAA468"/>
<path d="M108.346 17.5768C108.35 17.575 108.355 17.5726 108.359 17.5703C108.355 17.5722 108.351 17.5745 108.347 17.5759C108.347 17.5759 108.347 17.576 108.346 17.5764V17.5768Z" fill="#EAA468"/>
<path d="M107.432 21.7383C107.5 21.9663 107.584 22.1938 107.675 22.4194C107.6 22.2314 107.529 22.0433 107.47 21.8534C107.459 21.8144 107.443 21.7773 107.432 21.7387L107.432 21.7383Z" fill="#EAA468"/>
<path d="M107.148 19.9643C107.148 20.2299 107.17 20.5039 107.212 20.7801C107.18 20.5549 107.161 20.3325 107.155 20.1143C107.153 20.0632 107.148 20.0122 107.148 19.9639V19.9643Z" fill="#EAA468"/>
<path d="M107.672 18.1295C107.705 18.0864 107.734 18.0404 107.77 18C107.735 18.0395 107.706 18.0845 107.672 18.1282C107.672 18.1282 107.672 18.1286 107.672 18.1295Z" fill="#EAA468"/>
<path d="M107.506 18.3907C107.533 18.341 107.559 18.2876 107.588 18.2402C107.559 18.2867 107.534 18.3396 107.506 18.3888C107.506 18.3888 107.506 18.3893 107.506 18.3902V18.3907Z" fill="#EAA468"/>
<path d="M109.039 15.4795L107.828 16.1853L107.968 16.4276L108.113 16.3431L108.028 16.123L109.063 15.5208L109.039 15.4795Z" fill="#EAA468"/>
<path d="M108.74 17.437C108.74 17.437 108.744 17.4355 108.745 17.4355C108.744 17.4355 108.742 17.437 108.74 17.437Z" fill="#EAA468"/>
<path d="M108.212 17.6435C108.256 17.6185 108.303 17.5994 108.35 17.5776C108.35 17.5776 108.35 17.5775 108.351 17.5771C108.304 17.599 108.256 17.618 108.211 17.6435H108.211H108.212Z" fill="#EAA468"/>
<path d="M108.467 17.5217C108.515 17.5026 108.567 17.4919 108.617 17.4775H108.617C108.566 17.4924 108.515 17.5031 108.467 17.5217Z" fill="#EAA468"/>
<path d="M114.801 26.4433L114.957 26.3528L114.876 26.2812C114.853 26.3365 114.828 26.3904 114.801 26.4433H114.801Z" fill="#EAA468"/>
<path d="M114.334 27.1461L114.313 27.1191C114.275 27.1558 114.235 27.1925 114.195 27.2273L114.334 27.1465V27.1461Z" fill="#EAA468"/>
<path d="M107.971 16.4263L107.992 16.4616C108.042 16.4439 108.093 16.4291 108.144 16.4138L108.116 16.3418L107.971 16.4263H107.971Z" fill="#EAA468"/>
<path d="M108.98 16.3405C109.039 16.3447 109.098 16.3508 109.159 16.3587L109.137 16.25L108.98 16.3405Z" fill="#EAA468"/>
<path d="M110.282 16.6913V16.499L110.092 16.6091C110.155 16.6351 110.218 16.662 110.282 16.6913Z" fill="#EAA468"/>
<path d="M110.765 16.9467C110.929 17.0418 111.09 17.1445 111.249 17.2559C111.09 17.144 110.929 17.0414 110.765 16.9467C110.602 16.8533 110.441 16.7707 110.283 16.6982C110.441 16.7702 110.602 16.8533 110.765 16.9467Z" fill="#EAA468"/>
<path d="M115.133 25.3531L115.323 25.2421L115.158 25.1455C115.151 25.2161 115.142 25.2848 115.133 25.3526V25.3531Z" fill="#EAA468"/>
<path d="M112.513 16.5855C112.497 16.5734 112.481 16.5604 112.464 16.5488L111.252 17.2532C111.316 17.2982 111.38 17.3447 111.443 17.3925L111.502 17.1738L112.513 16.586L112.513 16.5855Z" fill="#EAA468"/>
<path d="M112.371 18.2165C112.43 18.2778 112.49 18.3405 112.549 18.4046L112.663 18.2434L113.703 17.6389C113.663 17.5957 113.623 17.5525 113.582 17.5107L112.371 18.2165Z" fill="#EAA468"/>
<path d="M113.383 19.4417C113.435 19.5155 113.485 19.5903 113.535 19.665L114.746 18.9602C114.697 18.885 114.645 18.8111 114.593 18.7373L113.383 19.4417H113.383Z" fill="#EAA468"/>
<path d="M114.51 27.3654L114.334 27.1476L114.195 27.2284L114.356 27.5065L115.567 26.8012L115.545 26.7627L114.51 27.3654Z" fill="#DC6803"/>
<path d="M115.095 26.474L114.957 26.3514L114.801 26.4415L114.997 26.6857L116.208 25.9813L116.123 25.875L115.095 26.474Z" fill="#DC6803"/>
<path d="M114.512 27.3708L115.547 26.7681L115.723 26.6655L116.208 25.9834L114.997 26.6878L114.512 27.3708Z" fill="#EDB381"/>
<path d="M113.745 21.453C113.681 21.3058 113.612 21.1591 113.539 21.0133C113.319 20.5796 113.062 20.1594 112.775 19.7698C112.679 19.6403 112.58 19.5135 112.478 19.3905C111.968 18.7767 111.384 18.2561 110.761 17.8963C110.637 17.8248 110.515 17.7621 110.394 17.7059C110.03 17.5374 109.683 17.4413 109.359 17.412C109.143 17.3925 108.939 17.4027 108.746 17.4408C108.744 17.4408 108.743 17.4422 108.741 17.4422C108.697 17.451 108.655 17.4668 108.613 17.4779C108.563 17.4928 108.511 17.5035 108.463 17.5221C108.422 17.5378 108.383 17.5587 108.344 17.5768C108.297 17.5987 108.25 17.6177 108.206 17.6428C108.163 17.6674 108.124 17.6985 108.083 17.7277C108.048 17.7514 108.012 17.7728 107.978 17.7997C107.905 17.8582 107.835 17.926 107.77 17.9984C107.769 17.9994 107.768 18.0012 107.767 18.0022C107.731 18.0426 107.702 18.0881 107.669 18.1317C107.641 18.1679 107.612 18.2014 107.586 18.2394C107.556 18.2863 107.531 18.3397 107.504 18.3899C107.482 18.4312 107.457 18.4674 107.436 18.5106C107.252 18.9011 107.151 19.3882 107.148 19.9611C107.148 20.2272 107.17 20.5011 107.212 20.7779C107.214 20.7978 107.216 20.8178 107.219 20.8382C107.267 21.1354 107.337 21.4372 107.428 21.7376C107.496 21.9656 107.58 22.1931 107.671 22.4188C107.701 22.4908 107.727 22.5627 107.758 22.6333C107.765 22.6496 107.773 22.6649 107.78 22.6811C107.904 22.9597 108.042 23.2346 108.196 23.5007C108.846 24.6285 109.745 25.6138 110.739 26.1877C111.735 26.763 112.636 26.8196 113.292 26.4463C113.946 26.0739 114.352 25.2711 114.355 24.1266C114.356 23.5541 114.257 22.9514 114.076 22.3491C113.986 22.0483 113.875 21.7483 113.747 21.453H113.745Z" fill="#EAA468"/>
<path d="M110.765 17.4443C108.561 16.1702 106.767 17.194 106.76 19.732C106.753 22.2672 108.536 25.3615 110.738 26.6342C112.944 27.9101 114.739 26.8854 114.746 24.3502C114.753 21.8113 112.97 18.7198 110.765 17.4443ZM112.777 19.7669C113.064 20.1569 113.321 20.5766 113.541 21.0103C113.614 21.1561 113.683 21.3028 113.747 21.45C113.876 21.7453 113.987 22.0453 114.077 22.3462C114.257 22.9484 114.357 23.5515 114.356 24.1236C114.353 25.2681 113.947 26.071 113.293 26.4433C112.637 26.8167 111.736 26.76 110.74 26.1847C109.746 25.6108 108.846 24.6255 108.197 23.4977C108.034 23.2163 107.887 22.9252 107.759 22.6303C107.646 22.3726 107.55 22.1108 107.466 21.8493C107.455 21.8103 107.44 21.7732 107.429 21.7347C107.338 21.4338 107.268 21.1324 107.221 20.8353C107.182 20.5896 107.162 20.3477 107.156 20.1095C107.154 20.0584 107.15 20.0074 107.15 19.9591C107.152 19.3852 107.253 18.8981 107.438 18.5076C107.459 18.4635 107.483 18.4268 107.505 18.385C107.533 18.3354 107.558 18.2829 107.587 18.2365C107.614 18.1979 107.644 18.1636 107.671 18.1273C107.704 18.0842 107.734 18.0387 107.769 17.9992C107.77 17.9983 107.771 17.9964 107.772 17.9955C107.836 17.9226 107.907 17.8548 107.98 17.7967C108.014 17.7689 108.05 17.7484 108.085 17.7243C108.126 17.6955 108.165 17.6639 108.207 17.6398C108.252 17.6143 108.3 17.5952 108.347 17.5734C108.386 17.5558 108.424 17.5349 108.465 17.5191C108.513 17.5 108.565 17.4894 108.615 17.475C108.658 17.4638 108.699 17.448 108.743 17.4392C108.745 17.4392 108.747 17.4378 108.749 17.4378C108.941 17.3997 109.145 17.39 109.361 17.409C109.686 17.4383 110.032 17.5344 110.396 17.7029C110.517 17.7587 110.64 17.8218 110.764 17.8933C111.386 18.2532 111.97 18.7732 112.481 19.3875C112.582 19.5101 112.681 19.6368 112.777 19.7669Z" fill="#FBF0E6"/>
<path d="M107.148 16.5753L107.834 16.1853L109.044 15.4795L108.36 15.8714L107.148 16.5753Z" fill="#EAA468"/>
<path d="M109.062 15.5213L108.027 16.1235L108.865 16.052L110.076 15.3467L109.239 15.4186L109.062 15.5213Z" fill="#EDB381"/>
<path d="M110.084 15.3467L108.873 16.052L108.985 16.3426L109.142 16.2521L109.106 16.0757L110.135 15.4767L110.084 15.3467Z" fill="#DC6803"/>
<path d="M115.1 26.4724L116.128 25.8734L116.311 25.767L116.564 24.8389L115.353 25.5437L115.1 26.4724Z" fill="#EDB381"/>
<path d="M115.386 25.2764L115.323 25.2406L115.133 25.3511L115.352 25.5452L116.564 24.8404L116.393 24.6895L115.386 25.2764Z" fill="#DC6803"/>
<path d="M110.033 16.3259L110.091 16.611L110.281 16.5009V16.4304L111.29 15.8435L111.245 15.6201L110.033 16.3259Z" fill="#DC6803"/>
<path d="M110.135 15.4779L109.105 16.0769L110.039 16.3285L111.251 15.6228L110.317 15.3711L110.135 15.4779Z" fill="#EDB381"/>
<path d="M115.383 24.1673L115.381 25.277L116.388 24.6901L116.592 24.5712L116.596 23.4629L116.378 23.5892L115.383 24.1673Z" fill="#EDB381"/>
<path d="M111.292 15.8465L110.283 16.4334L111.25 16.9915L112.461 16.2871L111.495 15.7285L111.292 15.8465Z" fill="#EDB381"/>
<path d="M111.252 17.2499L112.464 16.5455L112.464 16.2832L111.253 16.9876L111.252 17.2499Z" fill="#DC6803"/>
<path d="M116.139 22.042L115.107 22.6419L115.355 23.8607L116.364 23.2724L116.565 23.1554L116.319 21.9375L116.139 22.042Z" fill="#EDB381"/>
<path d="M112.512 16.5833L111.502 17.1711L112.433 17.9985L113.645 17.2928L112.713 16.4658L112.512 16.5833Z" fill="#EDB381"/>
<path d="M112.371 18.2189L113.582 17.5132L113.642 17.2949L112.43 18.0007L112.371 18.2189Z" fill="#DC6803"/>
<path d="M115.574 20.4639L114.527 21.075L115.008 22.3161L116.047 21.7106L116.219 21.6108L115.739 20.3701L115.574 20.4639Z" fill="#EDB381"/>
<path d="M113.702 17.6442L112.662 18.2488L113.497 19.2884L114.708 18.5831L113.874 17.5439L113.702 17.6442Z" fill="#EDB381"/>
<path d="M113.383 19.446L114.593 18.7417L114.708 18.5801L113.497 19.2854L113.383 19.446Z" fill="#DC6803"/>
<path d="M113.699 19.5754L114.38 20.7553L115.43 20.1438L115.591 20.0504L114.91 18.8701L113.699 19.5754Z" fill="#EDB381"/>
<path d="M113.541 19.6674L113.702 19.5754L114.914 18.8701L114.752 18.9625L113.541 19.6674Z" fill="#EAA468"/>
<path d="M115.171 24.1774L115.159 24.0334C115.152 23.9545 115.144 23.877 115.134 23.7976L115.355 23.8589L115.107 22.64L114.888 22.5824C114.865 22.4989 114.84 22.4167 114.815 22.3345L115.011 22.3173L114.531 21.0762L114.334 21.0924C114.296 21.0103 114.257 20.929 114.217 20.8482L114.379 20.7567L113.699 19.5769L113.538 19.6688C113.488 19.5936 113.437 19.5193 113.386 19.4455L113.5 19.2848L112.665 18.2452L112.551 18.4063C112.492 18.3423 112.433 18.2796 112.373 18.2183L112.432 18.0001L111.5 17.1726L111.441 17.3913C111.378 17.344 111.314 17.2975 111.25 17.252L111.251 16.9897L110.284 16.4316V16.6944C110.22 16.6651 110.157 16.6382 110.094 16.6122L110.036 16.3271L109.103 16.0754L109.139 16.2523L109.161 16.361C109.1 16.3526 109.041 16.3471 108.982 16.3429L108.87 16.0518L108.032 16.1233L108.117 16.3434L108.145 16.4153C108.094 16.4302 108.042 16.4455 107.993 16.4631C107.905 16.4929 107.825 16.5347 107.744 16.5755C107.825 16.5347 107.905 16.4929 107.993 16.4631L107.972 16.4279L107.833 16.1855L107.147 16.575L107.17 16.6136L107.309 16.8522C107.268 16.8866 107.228 16.9233 107.191 16.96L107.102 16.8509L106.993 16.7157L106.507 17.3988L106.593 17.5042L106.704 17.6421C106.678 17.695 106.653 17.7489 106.629 17.8046L106.41 17.61L106.157 18.5396L106.328 18.6891L106.377 18.7332C106.367 18.8005 106.358 18.8693 106.352 18.9389L106.123 18.8075L106.121 19.9168L106.349 20.0486C106.35 20.0677 106.352 20.0867 106.354 20.1062C106.36 20.1652 106.365 20.2242 106.373 20.2831L106.153 20.2237L106.4 21.4416L106.62 21.5001C106.635 21.5549 106.652 21.6102 106.668 21.6649C106.676 21.6928 106.684 21.7197 106.693 21.7476L106.495 21.7643L106.976 23.0059L107.172 22.9892C107.211 23.07 107.25 23.1512 107.29 23.2306V23.2325L107.129 23.3244L107.809 24.5043L107.97 24.4119C108.02 24.488 108.07 24.5628 108.122 24.6357L108.008 24.7968L108.843 25.8359L108.957 25.6758C108.976 25.6957 108.996 25.7162 109.014 25.7357C109.054 25.7788 109.094 25.8216 109.134 25.8633L109.075 26.0816L110.007 26.9095L110.066 26.6898C110.113 26.7256 110.159 26.7586 110.207 26.7929C110.223 26.8045 110.239 26.8175 110.256 26.8273V27.0901L111.221 27.6487V27.3863C111.286 27.416 111.35 27.4416 111.413 27.468L111.425 27.5293L111.471 27.7559L112.405 28.008L112.347 27.7202C112.407 27.729 112.466 27.7341 112.525 27.7378L112.588 27.8999L112.637 28.0308L113.476 27.9584L113.363 27.6649C113.415 27.651 113.466 27.6357 113.516 27.6189L113.653 27.8557L113.676 27.8961L114.362 27.5061L114.201 27.228C114.241 27.1932 114.281 27.1569 114.319 27.1198L114.34 27.1467L114.516 27.3645L115.001 26.6815L114.804 26.4372C114.831 26.3848 114.856 26.3305 114.88 26.2752L114.96 26.3467L115.098 26.4693L115.351 25.5406L115.132 25.3466C115.141 25.2788 115.15 25.21 115.157 25.1395L115.322 25.236L115.385 25.2718L115.387 24.1625L115.16 24.0316L115.172 24.1755L115.171 24.1774ZM110.737 26.9136C108.401 25.5625 106.512 22.2848 106.519 19.5941C106.526 16.9033 108.428 15.8187 110.766 17.1703C113.105 18.5238 114.994 21.7973 114.986 24.4908C114.978 27.1797 113.078 28.2662 110.737 26.9141V26.9136Z" fill="#F3CE90"/>
<path d="M110.766 17.1714C108.429 15.8197 106.527 16.9044 106.52 19.5951C106.512 22.2863 108.402 25.5635 110.738 26.9147C113.079 28.2673 114.979 27.1808 114.986 24.4914C114.995 21.7983 113.106 18.5244 110.766 17.1709V17.1714ZM110.739 26.6375C108.537 25.3643 106.753 22.2705 106.76 19.7354C106.767 17.1974 108.562 16.1735 110.765 17.4476C112.971 18.7236 114.754 21.8146 114.747 24.3535C114.74 26.8887 112.944 27.913 110.739 26.6375Z" fill="#EAA468"/>
<path d="M115.354 23.8608L115.133 23.7995C115.143 23.8789 115.151 23.9569 115.158 24.0353L116.369 23.33C116.368 23.3115 116.365 23.292 116.363 23.2725L115.354 23.8608H115.354Z" fill="#EAA468"/>
<path d="M115.158 24.0349L115.385 24.1659L116.38 23.5878L116.598 23.4615L116.369 23.3301L115.158 24.0349Z" fill="#DC6803"/>
<path d="M114.885 22.5842L115.104 22.6423L116.135 22.0423L116.316 21.9379L116.096 21.8789L114.885 22.5842Z" fill="#DC6803"/>
<path d="M115.015 22.3189L114.818 22.3361C114.844 22.4182 114.868 22.5004 114.892 22.584L116.103 21.8787C116.087 21.8239 116.071 21.7687 116.055 21.7139L115.015 22.3189H115.015Z" fill="#EAA468"/>
<path d="M114.383 20.758L114.221 20.8495C114.26 20.9303 114.3 21.0115 114.337 21.0937L115.549 20.3889C115.511 20.3071 115.472 20.2268 115.432 20.1465L114.383 20.758Z" fill="#DC6803"/>
<path d="M114.336 21.0912L114.533 21.075L115.58 20.4639L115.746 20.3701L115.548 20.3864L114.336 21.0912Z" fill="#EAA468"/>
<path d="M110.766 17.3865C108.53 16.0934 106.711 17.1312 106.703 19.7003C106.696 22.2731 108.503 25.4072 110.739 26.7013C112.977 27.994 114.796 26.9562 114.803 24.3825C114.81 21.8139 113.002 18.6788 110.766 17.3865ZM110.741 26.3331C108.68 25.1417 107.017 22.2554 107.023 19.8851C107.03 17.5189 108.705 16.5624 110.765 17.7538C112.826 18.9453 114.49 21.8315 114.484 24.1977C114.476 26.5694 112.801 27.5255 110.741 26.3336V26.3331Z" fill="#EAA468"/>
<path d="M110.77 17.7568C108.709 16.5654 107.034 17.5219 107.027 19.888C107.021 22.2584 108.685 25.1446 110.745 26.3361C112.806 27.528 114.481 26.572 114.488 24.2002C114.494 21.834 112.831 18.9478 110.77 17.7563V17.7568ZM110.747 25.661C109.01 24.6566 107.609 22.2259 107.614 20.227C107.62 18.2327 109.03 17.4285 110.768 18.4329C112.501 19.4339 113.906 21.8679 113.9 23.8617C113.895 25.8601 112.481 26.663 110.747 25.6605V25.661Z" fill="#F3CE90"/>
<path d="M110.762 18.4316C109.024 17.4273 107.614 18.2315 107.607 20.2257C107.602 22.2246 109.004 24.6554 110.741 25.6597C112.474 26.6622 113.888 25.8594 113.894 23.8609C113.9 21.8667 112.495 19.4327 110.762 18.4321V18.4316Z" fill="#EDB381"/>
<path d="M61.847 22.6274V22.626L61.7148 22.7031L61.847 22.6274Z" fill="#EAA468"/>
<path d="M63.1172 24.7637L63.2577 24.6811C63.2424 24.6653 63.2257 24.6486 63.2104 24.6318L63.1172 24.7637Z" fill="#EAA468"/>
<path d="M61.1934 21.4221L61.3552 21.4086C61.3478 21.3859 61.3413 21.3636 61.3348 21.3408L61.1934 21.4221Z" fill="#EAA468"/>
<path d="M64.0781 25.6411L64.2427 25.5454C64.2038 25.5171 64.1658 25.4902 64.1268 25.4609L64.0781 25.6411Z" fill="#EAA468"/>
<path d="M60.9121 20.1522L61.0934 20.201C61.0874 20.1527 61.0827 20.104 61.0781 20.0557L60.9126 20.1518L60.9121 20.1522Z" fill="#EAA468"/>
<path d="M62.2305 22.1289C62.3357 22.3708 62.4563 22.6099 62.5903 22.8407C62.4642 22.6225 62.3506 22.3968 62.249 22.1684C62.243 22.1554 62.2365 22.1428 62.2305 22.1294V22.1289Z" fill="#EAA468"/>
<path d="M62.1521 21.9569C62.1076 21.8464 62.0658 21.7355 62.0273 21.624C62.0853 21.7944 62.1498 21.9648 62.223 22.1329C62.198 22.0749 62.1762 22.0159 62.1521 21.9569Z" fill="#EAA468"/>
<path d="M62.0304 21.6231C62.0155 21.579 62.0007 21.5353 61.9863 21.4912C62.0002 21.5353 62.0151 21.579 62.0304 21.6231Z" fill="#EAA468"/>
<path d="M61.7402 20.0615C61.7453 20.2486 61.7602 20.439 61.7898 20.6322C61.7889 20.6243 61.788 20.6159 61.7871 20.608C61.7602 20.4232 61.7449 20.2408 61.7402 20.0615Z" fill="#EAA468"/>
<path d="M61.7891 20.6338C61.79 20.6418 61.7908 20.6498 61.7926 20.6578C61.7913 20.6498 61.7904 20.6418 61.7891 20.6338Z" fill="#EAA468"/>
<path d="M65.0742 26.0332V26.2486L65.2416 26.1507L65.2319 26.1005C65.1799 26.0787 65.1275 26.0578 65.0747 26.0337L65.0742 26.0332Z" fill="#EAA468"/>
<path d="M60.8872 18.993L61.0745 19.1007C61.0801 19.0432 61.0875 18.987 61.0949 18.9317L61.0546 18.8955L60.8867 18.993H60.8872Z" fill="#EAA468"/>
<path d="M65.9941 26.3066L66.0419 26.543L66.1917 26.4543L66.1402 26.3215C66.092 26.3187 66.0433 26.3141 65.9941 26.3071V26.3066Z" fill="#EAA468"/>
<path d="M61.1274 18.0126L61.3069 18.1723C61.3263 18.1264 61.3467 18.0823 61.3685 18.0391L61.2767 17.9258L61.127 18.0126H61.1274Z" fill="#EAA468"/>
<path d="M66.8301 26.2608L66.9228 26.5018L67.0679 26.4177L66.9553 26.2236C66.9145 26.2371 66.8723 26.2496 66.8301 26.2612V26.2608Z" fill="#EAA468"/>
<path d="M61.5996 17.2803L61.6891 17.3913L61.7614 17.4809C61.7925 17.4507 61.8245 17.4206 61.8583 17.3922L61.7447 17.1963L61.5996 17.2803Z" fill="#EAA468"/>
<path d="M62.4547 18.1338C62.4394 18.144 62.4245 18.1542 62.4102 18.1658C62.4245 18.1542 62.4398 18.1435 62.4547 18.1338Z" fill="#EAA468"/>
<path d="M62.162 18.4375L62.1624 18.4365C62.1555 18.4463 62.148 18.4556 62.1406 18.4648C62.1476 18.456 62.155 18.4467 62.162 18.4375Z" fill="#EAA468"/>
<path d="M62.1382 18.4609C62.1224 18.4809 62.1066 18.5009 62.0918 18.5222C62.1066 18.5009 62.1229 18.4809 62.1382 18.4609Z" fill="#EAA468"/>
<path d="M62.2383 18.3265C62.2383 18.3265 62.2397 18.3242 62.2411 18.3232C62.2402 18.3242 62.2397 18.3256 62.2383 18.3265Z" fill="#EAA468"/>
<path d="M62.02 18.6479C62.02 18.6479 62.0205 18.6474 62.0205 18.6465C62.0019 18.6804 61.982 18.711 61.9648 18.7468C61.9811 18.711 62.0019 18.6813 62.02 18.6474V18.6479Z" fill="#EAA468"/>
<path d="M62.9341 17.8964C62.9688 17.8876 63.0031 17.8742 63.0388 17.8672C63.0027 17.8746 62.9684 17.8876 62.9336 17.8964H62.9341Z" fill="#EAA468"/>
<path d="M62.4941 18.1029C62.5275 18.0792 62.56 18.0536 62.5948 18.0332H62.5943C62.56 18.0532 62.5275 18.0792 62.4941 18.1029Z" fill="#EAA468"/>
<path d="M62.7109 17.9788C62.7147 17.9769 62.7184 17.975 62.7221 17.9736C62.7189 17.975 62.7156 17.9769 62.7123 17.9783C62.7123 17.9783 62.712 17.9785 62.7114 17.9788H62.7109Z" fill="#EAA468"/>
<path d="M62.7188 17.9725C62.747 17.9591 62.7753 17.9442 62.8055 17.9326C62.7753 17.9442 62.747 17.9586 62.7188 17.9725Z" fill="#EAA468"/>
<path d="M61.9575 21.3994C62.0136 21.5865 62.0827 21.7737 62.1569 21.9585C62.0952 21.8043 62.0377 21.6497 61.9881 21.4937C61.9788 21.4616 61.9663 21.4315 61.957 21.3994H61.9575Z" fill="#EAA468"/>
<path d="M62.2461 22.1699C62.3476 22.3988 62.4612 22.6245 62.5874 22.8423C62.4612 22.624 62.3476 22.3984 62.2461 22.1699Z" fill="#EAA468"/>
<path d="M61.7324 19.9409C61.732 20.1587 61.7505 20.3839 61.7844 20.6104C61.7575 20.4256 61.7422 20.2432 61.7375 20.0639C61.7361 20.0222 61.7324 19.9804 61.7324 19.9404V19.9409Z" fill="#EAA468"/>
<path d="M62.1543 18.4384C62.1817 18.4026 62.2058 18.365 62.235 18.332C62.2062 18.3645 62.1821 18.4017 62.1548 18.437C62.1548 18.437 62.1543 18.4374 62.1543 18.4379V18.4384Z" fill="#EAA468"/>
<path d="M62.0234 18.646C62.0462 18.6051 62.067 18.5615 62.0911 18.5225C62.067 18.5605 62.0462 18.6037 62.0239 18.6446C62.0239 18.6446 62.0237 18.645 62.0234 18.646Z" fill="#EAA468"/>
<path d="M63.2812 16.2588L62.2871 16.8383L62.4021 17.037L62.5213 16.9673L62.4513 16.7867L63.3007 16.2927L63.2812 16.2588Z" fill="#EAA468"/>
<path d="M63.043 17.8681C63.043 17.8681 63.0458 17.8672 63.0472 17.8672C63.0458 17.8672 63.0444 17.8681 63.043 17.8681Z" fill="#EAA468"/>
<path d="M62.604 18.0377C62.6401 18.0173 62.6791 18.0015 62.7171 17.9839C62.7171 17.9839 62.7174 17.9837 62.718 17.9834C62.6796 18.0015 62.6401 18.0168 62.6035 18.0382H62.604V18.0377Z" fill="#EAA468"/>
<path d="M62.8105 17.9366C62.85 17.9213 62.8926 17.9125 62.9339 17.9004H62.9334C62.8922 17.9125 62.85 17.9213 62.8105 17.9366Z" fill="#EAA468"/>
<path d="M68.0078 25.2539L68.1358 25.1796L68.0695 25.1211C68.05 25.1666 68.0301 25.2107 68.0078 25.2539Z" fill="#EAA468"/>
<path d="M67.6341 25.8397L67.6164 25.8174C67.5849 25.8476 67.552 25.8773 67.5195 25.9061L67.6336 25.8397H67.6341Z" fill="#EAA468"/>
<path d="M62.4043 17.0413L62.4215 17.0701C62.4623 17.0557 62.5045 17.0432 62.5466 17.0311L62.5239 16.9717L62.4048 17.0413H62.4043Z" fill="#EAA468"/>
<path d="M63.2324 16.9718C63.2802 16.9755 63.3293 16.9801 63.3785 16.9866L63.3604 16.8975L63.2324 16.9718Z" fill="#EAA468"/>
<path d="M64.3008 17.2545V17.0967L64.1445 17.1872C64.1965 17.2086 64.2484 17.2309 64.3008 17.2545Z" fill="#EAA468"/>
<path d="M64.6983 17.4577C64.8323 17.5357 64.9649 17.6198 65.0947 17.7117C64.9644 17.6203 64.8323 17.5357 64.6983 17.4577C64.5643 17.3811 64.4321 17.3133 64.3027 17.2539C64.4326 17.3133 64.5647 17.3811 64.6983 17.4577Z" fill="#EAA468"/>
<path d="M68.2812 24.3623L68.4375 24.2713L68.3017 24.1924C68.2961 24.2504 68.2887 24.3066 68.2812 24.3623Z" fill="#EAA468"/>
<path d="M66.1331 17.1679C66.1196 17.1577 66.1062 17.1474 66.0922 17.1377L65.0977 17.7158C65.1505 17.7529 65.2024 17.791 65.2544 17.83L65.3031 17.6503L66.1321 17.1679H66.1331Z" fill="#EAA468"/>
<path d="M66.0176 18.5053C66.0663 18.5554 66.1154 18.6069 66.1636 18.6594L66.2568 18.5271L67.1105 18.0307C67.078 17.9954 67.0451 17.9601 67.0117 17.9258L66.0176 18.5048V18.5053Z" fill="#EAA468"/>
<path d="M66.8477 19.5146C66.8899 19.5754 66.9316 19.6363 66.9729 19.698L67.967 19.1195C67.9262 19.0577 67.884 18.9973 67.8413 18.9365L66.8477 19.5146Z" fill="#EAA468"/>
<path d="M67.7778 26.014L67.6336 25.8353L67.5195 25.9017L67.6512 26.1301L68.6449 25.5511L68.6268 25.5195L67.7778 26.014Z" fill="#DC6803"/>
<path d="M68.2489 25.2813L68.1358 25.181L68.0078 25.2548L68.1687 25.4554L69.1628 24.8773L69.0933 24.79L68.2489 25.2813Z" fill="#DC6803"/>
<path d="M67.7754 26.0194L68.6244 25.5249L68.7691 25.4404L69.1674 24.8809L68.1732 25.4589L67.7754 26.0194Z" fill="#EDB381"/>
<path d="M67.1454 21.1581C67.0926 21.0373 67.036 20.9166 66.9762 20.7973C66.7958 20.4412 66.5848 20.0966 66.3493 19.7767C66.2705 19.6704 66.1893 19.5664 66.1059 19.4656C65.6872 18.9618 65.2077 18.5346 64.6967 18.2393C64.5947 18.1808 64.4946 18.1293 64.3949 18.0833C64.0963 17.945 63.812 17.866 63.5459 17.8419C63.3683 17.8261 63.2004 17.834 63.0428 17.8656C63.0414 17.8656 63.04 17.8665 63.0386 17.8665C63.0024 17.8739 62.9681 17.8869 62.9334 17.8957C62.8921 17.9078 62.8499 17.9166 62.8105 17.932C62.7766 17.945 62.7451 17.9621 62.7126 17.977C62.6746 17.9951 62.6357 18.0104 62.5995 18.0309C62.5647 18.0508 62.5323 18.0768 62.4989 18.1005C62.4701 18.12 62.4405 18.1372 62.4131 18.1595C62.3528 18.2073 62.2953 18.263 62.2425 18.3229C62.2416 18.3238 62.2411 18.3252 62.2397 18.3262C62.2105 18.3591 62.1864 18.3967 62.159 18.4325C62.1363 18.4622 62.1126 18.4896 62.0913 18.5212C62.0672 18.5597 62.0459 18.6038 62.0236 18.6447C62.0055 18.6786 61.9851 18.7083 61.9684 18.7441C61.8173 19.0644 61.7338 19.4642 61.7324 19.9346C61.732 20.1533 61.7505 20.378 61.7844 20.6046C61.7862 20.6213 61.7876 20.6376 61.7904 20.6543C61.8293 20.898 61.8864 21.1455 61.961 21.3925C62.0171 21.5797 62.0862 21.7668 62.1604 21.9516C62.1845 22.011 62.2063 22.0695 62.2313 22.1276C62.2374 22.141 62.2439 22.1536 62.2499 22.1666C62.3514 22.3955 62.465 22.6211 62.5912 22.8389C63.1239 23.7643 63.8626 24.5732 64.6782 25.044C65.4952 25.5162 66.2348 25.5626 66.7731 25.2562C67.31 24.9506 67.643 24.2918 67.6457 23.3525C67.6467 22.8826 67.5651 22.3881 67.4167 21.8935C67.3425 21.6465 67.2516 21.4004 67.1459 21.1581H67.1454Z" fill="#EAA468"/>
<path d="M64.6952 17.8773C62.8869 16.8317 61.4142 17.6721 61.4082 19.755C61.4027 21.8356 62.866 24.375 64.6734 25.4197C66.4837 26.4668 67.9572 25.6259 67.9628 23.5453C67.9684 21.4614 66.5054 18.9244 64.6948 17.8773H64.6952ZM66.3464 19.7833C66.582 20.1033 66.7929 20.4478 66.9733 20.8039C67.0331 20.9233 67.0897 21.044 67.1425 21.1647C67.2478 21.4071 67.3391 21.6532 67.4133 21.9002C67.5612 22.3947 67.6433 22.8892 67.6424 23.3591C67.6396 24.2984 67.3071 24.9573 66.7697 25.2628C66.2314 25.5693 65.4918 25.5228 64.6748 25.0506C63.8588 24.5798 63.1206 23.7709 62.5878 22.8455C62.4543 22.6148 62.3337 22.3757 62.228 22.1337C62.1357 21.9225 62.0574 21.7075 61.9883 21.493C61.979 21.4609 61.9665 21.4308 61.9572 21.3987C61.8826 21.1522 61.8255 20.9042 61.7866 20.6605C61.7546 20.4589 61.7388 20.2602 61.7337 20.0647C61.7323 20.0229 61.7286 19.9811 61.7286 19.9412C61.73 19.4704 61.8135 19.0706 61.9646 18.7502C61.9818 18.714 62.0017 18.6838 62.0203 18.6499C62.043 18.6091 62.0634 18.5659 62.0875 18.5278C62.1098 18.4962 62.1339 18.4679 62.1561 18.4382C62.1835 18.4025 62.2076 18.3658 62.2363 18.3333C62.2373 18.3323 62.2377 18.3309 62.2391 18.33C62.292 18.2701 62.35 18.2149 62.4098 18.1666C62.4376 18.1438 62.4673 18.1271 62.4955 18.1071C62.5289 18.0835 62.5614 18.0579 62.5957 18.0375C62.6328 18.0166 62.6717 18.0008 62.7102 17.9827C62.7422 17.9683 62.7728 17.9511 62.8071 17.9381C62.8466 17.9228 62.8892 17.914 62.9305 17.9019C62.9653 17.8931 62.9996 17.8796 63.0353 17.8727C63.0367 17.8727 63.0381 17.8717 63.0394 17.8717C63.1976 17.8406 63.3649 17.8323 63.5425 17.8481C63.8087 17.8722 64.0929 17.9511 64.3915 18.0895C64.4912 18.1355 64.5918 18.187 64.6934 18.2455C65.2044 18.5408 65.6838 18.968 66.1025 19.4718C66.186 19.5725 66.2671 19.6766 66.3459 19.7829L66.3464 19.7833Z" fill="#FBF0E6"/>
<path d="M61.7324 17.1582L62.2944 16.8383L63.2885 16.2588L62.7265 16.5801L61.7324 17.1582Z" fill="#EAA468"/>
<path d="M63.3026 16.2948L62.4531 16.7889L63.1412 16.7304L64.1349 16.1514L63.4477 16.2103L63.3026 16.2948Z" fill="#EDB381"/>
<path d="M64.1362 16.1514L63.1426 16.7304L63.2344 16.969L63.3624 16.8947L63.3331 16.7494L64.178 16.2582L64.1362 16.1514Z" fill="#DC6803"/>
<path d="M68.2559 25.2848L69.1002 24.7936L69.2505 24.7063L69.4582 23.9443L68.4641 24.5229L68.2559 25.2848Z" fill="#EDB381"/>
<path d="M68.4894 24.3004L68.438 24.2711L68.2812 24.3621L68.4616 24.5214L69.4557 23.9428L69.3157 23.8193L68.4894 24.3004Z" fill="#DC6803"/>
<path d="M64.1035 16.954L64.1508 17.188L64.3075 17.0979V17.0399L65.1352 16.5584L65.0986 16.375L64.1035 16.954Z" fill="#DC6803"/>
<path d="M64.1769 16.2557L63.332 16.747L64.098 16.9536L65.0931 16.3746L64.3266 16.168L64.1769 16.2557Z" fill="#EDB381"/>
<path d="M68.4901 23.3867L68.4883 24.2967L69.3146 23.8157L69.4824 23.7177L69.4852 22.8086L69.3067 22.9121L68.4901 23.3867Z" fill="#EDB381"/>
<path d="M65.1304 16.5634L64.3027 17.0449L65.0956 17.5032L66.0898 16.9251L65.2969 16.4668L65.1304 16.5634Z" fill="#EDB381"/>
<path d="M65.0977 17.7154L66.0922 17.1373L66.0927 16.9219L65.0986 17.5L65.0977 17.7154Z" fill="#DC6803"/>
<path d="M69.1118 21.6421L68.2656 22.1343L68.4687 23.1349L69.2973 22.6524L69.4624 22.5563L69.2602 21.5566L69.1118 21.6421Z" fill="#EDB381"/>
<path d="M66.1342 17.1679L65.3047 17.6503L66.0693 18.3296L67.0634 17.7501L66.2988 17.0713L66.1342 17.1679Z" fill="#EDB381"/>
<path d="M66.0176 18.5092L67.0117 17.9302L67.0604 17.751L66.0663 18.3304L66.0176 18.5092Z" fill="#DC6803"/>
<path d="M68.6517 20.3486L67.793 20.85L68.1866 21.8683L69.0398 21.3719L69.1808 21.2897L68.7871 20.2715L68.6517 20.3486Z" fill="#EDB381"/>
<path d="M67.1114 18.0324L66.2578 18.5287L66.9431 19.3817L67.9373 18.8032L67.2524 17.9502L67.1114 18.0324Z" fill="#EDB381"/>
<path d="M66.8477 19.5151L67.8413 18.937L67.9354 18.8047L66.9413 19.3832L66.8477 19.5151Z" fill="#DC6803"/>
<path d="M67.1035 19.6239L67.6622 20.592L68.5238 20.0901L68.6564 20.0135L68.0976 19.0449L67.1035 19.6239Z" fill="#EDB381"/>
<path d="M66.9727 19.6992L67.1048 19.6239L68.0989 19.0449L67.9668 19.1206L66.9727 19.6992Z" fill="#EAA468"/>
<path d="M68.3144 23.3996C68.3144 23.3996 68.3112 23.3601 68.3042 23.2816C68.2986 23.2171 68.2917 23.153 68.2838 23.088L68.4656 23.1382L68.2625 22.1375L68.0826 22.0902C68.0635 22.0215 68.0436 21.9541 68.0223 21.8868L68.1836 21.8729L67.7895 20.8546L67.6272 20.8681C67.5966 20.8008 67.5642 20.7339 67.5317 20.6675L67.6643 20.5923L67.1056 19.6242L66.9734 19.6999C66.9322 19.6381 66.8904 19.5773 66.8482 19.5164L66.9419 19.3846L66.2566 18.5316L66.1634 18.664C66.1152 18.6115 66.066 18.5599 66.0173 18.5098L66.0656 18.3306L65.3009 17.6513L65.2523 17.831C65.2003 17.792 65.1484 17.7539 65.0955 17.7167L65.0965 17.5013L64.3031 17.043V17.2589C64.2507 17.2348 64.1988 17.2129 64.1468 17.1916L64.0996 16.9576L63.3336 16.7509L63.3628 16.8958L63.3808 16.985C63.3317 16.9785 63.2826 16.9738 63.2348 16.9701L63.1425 16.7314L62.4549 16.79L62.5249 16.9706L62.5476 17.03C62.5054 17.0425 62.4632 17.0546 62.4224 17.069C62.3506 17.0932 62.2847 17.1275 62.2184 17.1614C62.2847 17.128 62.3506 17.0936 62.4224 17.069L62.4053 17.0402L62.2907 16.8415L61.7283 17.1614L61.7468 17.193L61.8604 17.3889C61.8271 17.4172 61.7946 17.447 61.7635 17.4776L61.6912 17.388L61.6017 17.277L61.2029 17.8375L61.273 17.9238L61.3648 18.0371C61.343 18.0803 61.3226 18.1249 61.3031 18.1704L61.1237 18.0107L60.9159 18.7735L61.056 18.8961L61.0963 18.9323C61.0884 18.9876 61.0815 19.0438 61.0759 19.1013L60.8886 18.9936L60.8867 19.9042L61.0736 20.0123C61.0745 20.0277 61.0768 20.0439 61.0782 20.0597C61.0829 20.108 61.0875 20.1567 61.0935 20.205L60.9122 20.1563L61.1153 21.156L61.2952 21.2043C61.3077 21.2488 61.3217 21.2943 61.3346 21.3398C61.3411 21.3626 61.3481 21.3849 61.355 21.4076L61.1932 21.4211L61.5878 22.4403L61.7487 22.4268C61.7807 22.4932 61.8127 22.5601 61.8456 22.6251V22.6265L61.7135 22.7022L62.2717 23.6703L62.4039 23.5941C62.4451 23.6568 62.4864 23.7181 62.5291 23.7775L62.4354 23.9099L63.1207 24.7628L63.2139 24.631C63.2292 24.6472 63.2459 24.6644 63.2612 24.6802C63.2937 24.7155 63.3266 24.7503 63.3595 24.7846L63.3113 24.9634L64.0759 25.6427L64.1246 25.4626C64.1631 25.4918 64.2011 25.5187 64.2405 25.5471C64.2535 25.5563 64.2674 25.567 64.2809 25.5754V25.7913L65.0724 26.2496V26.0341C65.1252 26.0583 65.1776 26.0796 65.2295 26.101L65.2393 26.1511L65.2773 26.3369L66.0438 26.5435L65.996 26.3072C66.0452 26.3146 66.0938 26.3188 66.1421 26.3215L66.1935 26.4543L66.2343 26.5616L66.9229 26.5022L66.8302 26.2612C66.8724 26.2496 66.9146 26.237 66.9554 26.2236L67.068 26.4177L67.087 26.4511L67.6495 26.1312L67.5178 25.9032C67.5503 25.8744 67.5832 25.8447 67.6147 25.8145L67.6323 25.8368L67.7765 26.0156L68.1748 25.4551L68.0139 25.2545C68.0362 25.2114 68.0561 25.1668 68.0756 25.1217L68.1419 25.1802L68.2551 25.281L68.4628 24.5186L68.2829 24.3593C68.2908 24.3036 68.2977 24.2474 68.3033 24.1894L68.4391 24.2683L68.4906 24.2976L68.4925 23.387L68.3056 23.2798C68.3121 23.3582 68.3158 23.3977 68.3158 23.3977L68.3144 23.3996ZM64.6759 25.6455C62.7586 24.5367 61.2076 21.8464 61.2136 19.6381C61.2192 17.4298 62.7809 16.5397 64.6991 17.6489C66.6192 18.7596 68.1693 21.4466 68.1623 23.6568C68.1563 25.8637 66.5969 26.7557 64.6759 25.6455Z" fill="#F3CE90"/>
<path d="M64.6964 17.6482C62.7782 16.5389 61.2165 17.429 61.211 19.6373C61.2049 21.8456 62.7559 24.5359 64.6733 25.6447C66.5943 26.7544 68.1536 25.8629 68.1597 23.656C68.1662 21.4458 66.6161 18.7588 64.6964 17.6482ZM64.6737 25.4172C62.8663 24.3725 61.4029 21.8331 61.4085 19.7525C61.414 17.6695 62.8872 16.8296 64.6955 17.8747C66.5057 18.9218 67.9691 21.4588 67.9635 23.5427C67.958 25.6233 66.4844 26.4642 64.6742 25.4172H64.6737Z" fill="#EAA468"/>
<path d="M68.463 23.1416L68.2812 23.0915C68.2896 23.1565 68.2961 23.2205 68.3017 23.2851L69.2958 22.7065C69.2949 22.6912 69.2921 22.6754 69.2911 22.6592L68.463 23.1421V23.1416Z" fill="#EAA468"/>
<path d="M68.3066 23.2787L68.4935 23.3865L69.31 22.9119L69.4886 22.8084L69.3008 22.7002L68.3066 23.2787Z" fill="#DC6803"/>
<path d="M68.082 22.0932L68.2619 22.1406L69.1082 21.6484L69.2565 21.5629L69.0766 21.5146L68.082 22.0932Z" fill="#DC6803"/>
<path d="M68.1868 21.8704L68.0254 21.8843C68.0463 21.9516 68.0667 22.0194 68.0857 22.0877L69.0803 21.5091C69.0668 21.4641 69.0534 21.4186 69.0404 21.374L68.1872 21.8708L68.1868 21.8704Z" fill="#EAA468"/>
<path d="M67.6678 20.5903L67.5352 20.6656C67.5676 20.732 67.6001 20.7984 67.6307 20.8661L68.6253 20.2876C68.5937 20.2207 68.5627 20.1548 68.5297 20.0889L67.6682 20.5908L67.6678 20.5903Z" fill="#DC6803"/>
<path d="M67.627 20.8635L67.7892 20.85L68.648 20.3486L68.7834 20.2715L68.6215 20.285L67.627 20.8635Z" fill="#EAA468"/>
<path d="M64.7054 17.8268C62.8702 16.7654 61.3776 17.6174 61.3711 19.7259C61.3651 21.8377 62.8479 24.41 64.6836 25.4714C66.5198 26.5324 68.0129 25.6804 68.0184 23.5686C68.024 21.4606 66.5411 18.8874 64.7054 17.8273V17.8268ZM64.6846 25.1696C62.9935 24.1918 61.6285 21.8233 61.6336 19.8778C61.6387 17.936 63.0139 17.1508 64.705 18.1287C66.3965 19.1065 67.762 21.475 67.7569 23.4173C67.7509 25.3637 66.3761 26.1484 64.685 25.1701L64.6846 25.1696Z" fill="#EAA468"/>
<path d="M64.7081 18.1307C63.0171 17.1528 61.6418 17.938 61.6367 19.8798C61.6316 21.8253 62.9972 24.1938 64.6877 25.1717C66.3788 26.15 67.7536 25.3653 67.7596 23.4189C67.7647 21.4771 66.3996 19.1081 64.7077 18.1302L64.7081 18.1307ZM64.6905 24.6177C63.2642 23.7936 62.1148 21.7984 62.119 20.1579C62.1241 18.5212 63.2814 17.8614 64.7077 18.6856C66.1298 19.5069 67.283 21.5045 67.2779 23.1412C67.2737 24.7816 66.1131 25.4405 64.6905 24.6177Z" fill="#F3CE90"/>
<path d="M64.7059 18.687C63.2796 17.8629 62.1223 18.5227 62.1172 20.1594C62.113 21.7999 63.2629 23.795 64.6888 24.6192C66.1113 25.442 67.2719 24.7831 67.2761 23.1427C67.2812 21.5059 66.128 19.5084 64.7059 18.687Z" fill="#EDB381"/>
<path d="M122.775 12.8564C121.957 16.5025 121.293 17.3874 118.559 18.4782C121.293 19.5689 121.957 20.4538 122.775 24.0999C123.593 20.4538 124.257 19.5689 126.991 18.4782C124.257 17.3874 123.593 16.5025 122.775 12.8564Z" fill="#EAA468"/>
<path d="M55.1273 17.1064C54.5816 18.9298 54.1398 19.3728 52.3164 19.9173C54.1398 20.4629 54.5828 20.9048 55.1273 22.7282C55.6729 20.9048 56.1147 20.4617 57.9381 19.9173C56.1147 19.3717 55.6717 18.9298 55.1273 17.1064Z" fill="#EAA468"/>
<path d="M133.455 5.02051C132.636 8.2111 131.973 8.98561 129.238 9.9395C131.973 10.8944 132.637 11.6679 133.455 14.8585C134.273 11.6679 134.936 10.8934 137.671 9.9395C134.936 8.98464 134.272 8.2111 133.455 5.02051Z" fill="#EAA468"/>
<path d="M45.2897 7.27051C44.1985 10.4613 43.3146 11.2347 39.668 12.1895C43.3146 13.1443 44.1985 13.9177 45.2897 17.1085C46.3809 13.9177 47.2648 13.1443 50.9114 12.1895C47.2648 11.2347 46.3809 10.4613 45.2897 7.27051Z" fill="#EAA468"/>
<path d="M111.862 1.64551C111.453 3.01238 111.122 3.34445 109.754 3.75365C111.121 4.16284 111.453 4.49414 111.862 5.86179C112.271 4.49492 112.603 4.16284 113.97 3.75365C112.603 3.34445 112.271 3.01316 111.862 1.64551Z" fill="#EAA468"/>
</svg>
