<svg width="24" height="24" viewBox="0 0 24 24" fill="none" xmlns="http://www.w3.org/2000/svg">
<circle cx="12" cy="12" r="12" fill="#E9F2FB"/>
<path d="M16.5 16.3125V15.1875C16.5 14.5908 16.2629 14.0185 15.841 13.5965C15.419 13.1746 14.8467 12.9375 14.25 12.9375H9.75C9.15326 12.9375 8.58097 13.1746 8.15901 13.5965C7.73705 14.0185 7.5 14.5908 7.5 15.1875V16.3125" stroke="#677C91" stroke-width="1.3" stroke-linecap="round" stroke-linejoin="round"/>
<path d="M12 10.6875C13.2426 10.6875 14.25 9.68014 14.25 8.4375C14.25 7.19486 13.2426 6.1875 12 6.1875C10.7574 6.1875 9.75 7.19486 9.75 8.4375C9.75 9.68014 10.7574 10.6875 12 10.6875Z" stroke="#677C91" stroke-width="1.3" stroke-linecap="round" stroke-linejoin="round"/>
</svg>
