<svg width="34" height="34" viewBox="0 0 34 34" fill="none" xmlns="http://www.w3.org/2000/svg">
<path d="M17 8.40137C9.2804 8.40137 3 14.6818 3 22.4014C3 22.9161 3.4186 23.3347 3.93333 23.3347H9.53333C10.0481 23.3347 10.4667 22.9161 10.4667 22.4014C10.4667 18.7987 13.3973 15.868 17 15.868C19.2097 15.868 21.2523 16.9862 22.4558 18.8174C20.3745 19.5533 18.7607 20.1474 17.5726 20.614C17.3883 20.5669 17.1988 20.5347 17 20.5347C15.7134 20.5347 14.6667 21.5814 14.6667 22.868C14.6667 24.1546 15.7134 25.2014 17 25.2014C17.9189 25.2014 18.708 24.6628 19.0883 23.8886C20.3077 23.2246 21.8729 22.323 23.4475 21.399C23.4988 21.7294 23.5333 22.0635 23.5333 22.4014C23.5333 22.9161 23.9519 23.3347 24.4667 23.3347H30.0667C30.5814 23.3347 31 22.9161 31 22.4014C31 14.6818 24.7196 8.40137 17 8.40137ZM21.9359 16.8056C20.7067 15.7201 19.1406 15.0551 17.4667 14.9506V9.34637C20.7175 9.46117 23.6691 10.7678 25.8975 12.844L21.9359 16.8056ZM9.53333 22.4014H3.93333C3.93333 18.9662 5.26753 15.8386 7.44267 13.5039L11.4084 17.4696C10.2455 18.7866 9.53333 20.5104 9.53333 22.4014ZM12.0683 16.8098L8.10253 12.844C10.3309 10.7683 13.2821 9.46163 16.5333 9.34637V14.958C14.8263 15.0644 13.2755 15.7434 12.0683 16.8098ZM26.919 18.2532C24.6795 19.5934 21.5771 21.4377 19.3156 22.6972C19.2727 22.1153 19.0249 21.5903 18.6319 21.2048C20.5103 20.4885 23.2356 19.5174 26.919 18.2532ZM16.9995 24.268C16.2277 24.268 15.5995 23.6399 15.5995 22.868C15.5995 22.0962 16.2277 21.468 16.9995 21.468C17.7714 21.468 18.3995 22.0962 18.3995 22.868C18.3995 23.6399 17.7714 24.268 16.9995 24.268ZM24.4662 22.4014C24.4662 21.8908 24.4121 21.385 24.3099 20.8912C25.407 20.2435 26.4766 19.6056 27.4001 19.0535C27.8197 18.7992 27.9741 18.2947 27.7683 17.8537C27.5635 17.4155 27.0828 17.2092 26.6199 17.3688C25.4341 17.7758 24.3505 18.1519 23.3583 18.5C23.1315 18.1309 22.8753 17.7865 22.5939 17.4673L26.5564 13.5048C28.7315 15.8396 30.0657 18.9672 30.0657 22.4023H24.4657L24.4662 22.4014Z" fill="#1B3A5A" stroke="#1B3A5A" stroke-width="0.1"/>
</svg>
