<svg width="20" height="21" viewBox="0 0 20 21" fill="none" xmlns="http://www.w3.org/2000/svg">
<path d="M12.5686 9.72744C12.5686 8.60625 12.1232 7.53099 11.3304 6.73819C10.5376 5.94539 9.46235 5.5 8.34116 5.5C7.21997 5.5 6.14471 5.94539 5.35191 6.73819C4.55911 7.53099 4.11372 8.60625 4.11372 9.72744C4.11372 14.6595 2 16.0686 2 16.0686H14.6823C14.6823 16.0686 12.5686 14.6595 12.5686 9.72744Z" stroke="#1B3A5A" stroke-width="1.2" stroke-linecap="round" stroke-linejoin="round"/>
<path d="M9.37142 18.1826C9.24755 18.3962 9.06975 18.5734 8.85583 18.6966C8.64191 18.8198 8.39937 18.8847 8.15251 18.8847C7.90564 18.8847 7.6631 18.8198 7.44918 18.6966C7.23526 18.5734 7.05747 18.3962 6.93359 18.1826" stroke="#1B3A5A" stroke-width="1.2" stroke-linecap="round" stroke-linejoin="round"/>
<circle cx="11.5" cy="8" r="4.5" fill="#E3EAEE"/>
<path d="M10.1504 4.36119L8.22182 2.43262" stroke="#1B3A5A" stroke-width="1.2" stroke-linecap="round" stroke-linejoin="round"/>
<path d="M16.5801 11.4315L14.6515 9.50293" stroke="#1B3A5A" stroke-width="1.2" stroke-linecap="round" stroke-linejoin="round"/>
<path d="M17.93 5.5844L15.2955 6.29031" stroke="#1B3A5A" stroke-width="1.2" stroke-linecap="round" stroke-linejoin="round"/>
<path d="M14.0784 1.72614L13.3725 4.36062" stroke="#1B3A5A" stroke-width="1.2" stroke-linecap="round" stroke-linejoin="round"/>
<circle cx="11.5" cy="8" r="2.5" fill="#1B3A5A"/>
</svg>
