<svg width="20" height="25" viewBox="0 0 20 25" fill="none" xmlns="http://www.w3.org/2000/svg">
<path d="M19.7924 8.00815C19.6689 7.73167 19.4929 7.47867 19.2748 7.26478C19.1277 7.11872 18.9622 6.99088 18.7782 6.8866L11.2218 2.55695C11.2087 2.54913 11.1955 2.54131 11.1798 2.53607C10.431 2.12394 9.52187 2.13176 8.77831 2.55695L1.22177 6.8866C0.465048 7.31962 0 8.12292 0 8.98888V17.6508C0 18.2664 0.236505 18.8506 0.643707 19.294C0.809204 19.474 1.00362 19.6279 1.22177 19.7531L1.42147 19.8679L5.50705 22.2074L7.88746 23.5742L8.77823 24.0828C9.00678 24.2132 9.25116 24.3071 9.50343 24.3567C10.0815 24.4767 10.6937 24.3854 11.2218 24.0828L18.7782 19.7531C19.535 19.3202 20 18.5168 20 17.6508V8.98888C19.9999 8.64458 19.9264 8.31067 19.7924 8.00815Z" fill="#7D01C0"/>
<path d="M19.1027 5.5384C18.958 5.39484 18.7953 5.26918 18.6145 5.16668L11.1868 0.910742C11.1739 0.90308 11.1609 0.895345 11.1455 0.890264C10.4095 0.485148 9.5158 0.492883 8.78491 0.910742L1.35722 5.16668C0.613336 5.59228 0.15625 6.38194 0.15625 7.23314V15.7475C0.15625 16.3526 0.388692 16.9268 0.788988 17.3626C0.951641 17.5395 1.14281 17.6908 1.35714 17.8139L1.55343 17.9267L5.56947 20.2264L7.90933 21.5699L8.78491 22.0698C9.00956 22.198 9.2498 22.2903 9.49776 22.339C10.0659 22.4569 10.6677 22.3673 11.1868 22.0698L18.6145 17.8139C19.3583 17.3883 19.8155 16.5986 19.8155 15.7475V7.23314C19.8155 6.89472 19.7432 6.56655 19.6114 6.2691C19.49 5.99731 19.317 5.74866 19.1027 5.5384Z" fill="url(#paint0_linear_1161_15443)"/>
<path d="M1.71875 15.9586V7.02408C1.71875 6.85229 1.81104 6.69357 1.96094 6.60768L9.75529 2.14059C9.90519 2.0547 10.0899 2.0547 10.2397 2.14059L18.0337 6.60768C18.1836 6.69357 18.2759 6.85229 18.2759 7.02408V15.9586C18.2759 16.1303 18.1836 16.2891 18.0337 16.375L10.2394 20.842C10.0895 20.9279 9.90479 20.9279 9.75497 20.842L1.96094 16.375C1.81112 16.2891 1.71875 16.1303 1.71875 15.9586Z" fill="#7D01C0"/>
<path d="M2.8125 15.7331V7.75317C2.8125 7.56728 2.90658 7.39553 3.05937 7.30258L9.86577 3.06775C10.0186 2.97481 10.2067 2.97481 10.3595 3.06775L17.164 7.30258C17.3168 7.39553 17.4109 7.56728 17.4109 7.75317V15.7331C17.4109 15.9189 17.9146 16.1836 17.164 16.1836L10.3593 19.9283C10.2065 20.0213 10.0183 20.0213 9.86553 19.9283L3.05937 16.1836C2.90666 16.0907 2.8125 15.9189 2.8125 15.7331Z" fill="url(#paint1_linear_1161_15443)"/>
<path d="M10.2767 6.70597L11.1183 9.2774C11.2227 9.59598 11.5217 9.81172 11.8591 9.81172H14.5828C14.8543 9.81172 14.9672 10.1566 14.7476 10.3151L12.544 11.9043C12.271 12.1012 12.1568 12.4502 12.2611 12.7688L13.1027 15.3403C13.1866 15.5966 12.891 15.8097 12.6713 15.6513L10.4678 14.0621C10.1948 13.8652 9.82508 13.8652 9.55209 14.0621L7.34856 15.6513C7.12887 15.8097 6.83338 15.5966 6.91722 15.3403L7.75884 12.7688C7.86316 12.4502 7.74885 12.1012 7.47587 11.9043L5.27233 10.3151C5.05264 10.1567 5.16557 9.81172 5.4371 9.81172H8.16077C8.49826 9.81172 8.79732 9.59598 8.90156 9.2774L9.74318 6.70597C9.82743 6.44957 10.1928 6.44957 10.2767 6.70597Z" fill="#7D01C0"/>
<defs>
<linearGradient id="paint0_linear_1161_15443" x1="2.25531" y1="16.6582" x2="18.4878" y2="5.64637" gradientUnits="userSpaceOnUse">
<stop stop-color="#D3B8FF"/>
<stop offset="1" stop-color="#B670F3"/>
</linearGradient>
<linearGradient id="paint1_linear_1161_15443" x1="4.38886" y1="15.5284" x2="16.8654" y2="7.37835" gradientUnits="userSpaceOnUse">
<stop stop-color="#D3B8FF"/>
<stop offset="1" stop-color="#B670F3"/>
</linearGradient>
</defs>
</svg>
