<svg width="20" height="21" viewBox="0 0 20 21" fill="none" xmlns="http://www.w3.org/2000/svg">
<path d="M12.7809 3.48375C11.9209 3.14015 10.9823 2.95117 9.9997 2.95117C6.43039 2.95117 3.44343 5.44452 2.68555 8.78451M17.3139 12.1178C16.556 15.4578 13.569 17.9512 9.9997 17.9512C9.06534 17.9512 8.17088 17.7803 7.34588 17.4681" stroke="#1B3A5A" stroke-width="1.2" stroke-linecap="round" stroke-linejoin="round"/>
<path d="M7.08398 8.36816H18.7507" stroke="#1B3A5A" stroke-width="1.2" stroke-linecap="round" stroke-linejoin="round"/>
<path d="M0.833984 12.9512H12.5007" stroke="#1B3A5A" stroke-width="1.2" stroke-linecap="round" stroke-linejoin="round"/>
<circle cx="16.6673" cy="5.4515" r="0.833333" fill="#1B3A5A"/>
<path d="M4.16667 16.2845C4.16667 16.7447 3.79357 17.1178 3.33333 17.1178C2.8731 17.1178 2.5 16.7447 2.5 16.2845C2.5 15.8243 2.8731 15.4512 3.33333 15.4512C3.79357 15.4512 4.16667 15.8243 4.16667 16.2845Z" fill="#1B3A5A"/>
</svg>
