<svg width="34" height="34" viewBox="0 0 34 34" fill="none" xmlns="http://www.w3.org/2000/svg">
<path d="M8 21C14.0165 19.8554 15.9843 17.882 17 12C17.2036 17.556 19.645 19.9483 26 21C20.1499 22.3664 18.4857 24.5613 17 30C15.6714 24.1604 13.8535 22.0264 8 21Z" stroke="#1B3A5A" stroke-width="1.2" stroke-linecap="round"/>
<path d="M21 11C24.3425 10.3641 25.4357 9.26778 26 6C26.1131 9.08668 27.4694 10.4157 31 11C27.75 11.7591 26.8254 12.9785 26 16C25.2619 12.7558 24.2519 11.5702 21 11Z" stroke="#1B3A5A" stroke-width="1.2" stroke-linecap="round"/>
<path d="M3 8.5C6.00826 7.92769 6.99216 6.94101 7.5 4C7.60179 6.77801 8.82249 7.97414 12 8.5C9.07497 9.18321 8.24286 10.2807 7.5 13C6.83569 10.0802 5.92675 9.01319 3 8.5Z" stroke="#1B3A5A" stroke-width="1.2" stroke-linecap="round"/>
</svg>
