<svg width="20" height="21" viewBox="0 0 20 21" fill="none" xmlns="http://www.w3.org/2000/svg">
<path fill-rule="evenodd" clip-rule="evenodd" d="M15.366 15.9182V5.81816H16.2993V15.9182H15.366ZM14.166 5.61816C14.166 5.06588 14.6137 4.61816 15.166 4.61816H16.4993C17.0516 4.61816 17.4993 5.06588 17.4993 5.61816V16.1182C17.4993 16.6704 17.0516 17.1182 16.4993 17.1182H15.166C14.6137 17.1182 14.166 16.6704 14.166 16.1182V5.61816ZM2.86602 15.9182V13.3182H3.79935V15.9182H2.86602ZM1.66602 13.1182C1.66602 12.5659 2.11373 12.1182 2.66602 12.1182H3.99935C4.55163 12.1182 4.99935 12.5659 4.99935 13.1182V16.1182C4.99935 16.6704 4.55163 17.1182 3.99935 17.1182H2.66601C2.11373 17.1182 1.66602 16.6704 1.66602 16.1182V13.1182ZM11.1993 9.98483V15.9182H12.1327V9.98483H11.1993ZM10.9993 8.78483C10.4471 8.78483 9.99935 9.23255 9.99935 9.78483V16.1182C9.99935 16.6704 10.4471 17.1182 10.9993 17.1182H12.3327C12.885 17.1182 13.3327 16.6704 13.3327 16.1182V9.78483C13.3327 9.23255 12.885 8.78483 12.3327 8.78483H10.9993ZM7.03268 15.9182V7.48483H7.96602V15.9182H7.03268ZM5.83268 7.28483C5.83268 6.73255 6.2804 6.28483 6.83268 6.28483H8.16602C8.7183 6.28483 9.16602 6.73255 9.16602 7.28483V16.1182C9.16602 16.6704 8.7183 17.1182 8.16602 17.1182H6.83268C6.2804 17.1182 5.83268 16.6704 5.83268 16.1182V7.28483Z" fill="#1B3A5A"/>
</svg>
