<svg width="14" height="16" viewBox="0 0 14 16" fill="none" xmlns="http://www.w3.org/2000/svg">
<path d="M11.6669 7H2.33336C1.59697 7 1 7.65124 1 8.45458V13.5456C1 14.3489 1.59697 15.0002 2.33336 15.0002H11.6669C12.4033 15.0002 13.0003 14.3489 13.0003 13.5456V8.45458C13.0003 7.65124 12.4033 7 11.6669 7Z" stroke="#0050A2" stroke-width="1.3" stroke-linecap="round" stroke-linejoin="round"/>
<path d="M3.58399 6.99916V4.33392C3.58311 3.50773 3.90803 2.7107 4.49568 2.09757C5.08334 1.48443 5.89179 1.09893 6.76411 1.0159C7.63642 0.932867 8.51036 1.15823 9.21626 1.64824C9.92216 2.13825 10.4097 2.85795 10.5841 3.66761V6.99916" stroke="#0050A2" stroke-width="1.3" stroke-linecap="round" stroke-linejoin="round"/>
<ellipse cx="7.33205" cy="11.253" rx="1.00002" ry="1.00002" fill="#0050A2"/>
</svg>
