<svg width="20" height="21" viewBox="0 0 20 21" fill="none" xmlns="http://www.w3.org/2000/svg">
<path d="M12.9552 16.6363V15.1211C12.9552 14.3174 12.6359 13.5467 12.0676 12.9784C11.4993 12.4101 10.7286 12.0908 9.92489 12.0908H3.86429C3.0606 12.0908 2.28983 12.4101 1.72154 12.9784C1.15325 13.5467 0.833984 14.3174 0.833984 15.1211V16.6363" stroke="#1B3A5A" stroke-width="1.2" stroke-linecap="round" stroke-linejoin="round"/>
<path d="M6.89554 9.06061C8.56913 9.06061 9.92584 7.70389 9.92584 6.0303C9.92584 4.35671 8.56913 3 6.89554 3C5.22195 3 3.86523 4.35671 3.86523 6.0303C3.86523 7.70389 5.22195 9.06061 6.89554 9.06061Z" stroke="#1B3A5A" stroke-width="1.2" stroke-linecap="round" stroke-linejoin="round"/>
<path d="M17.5012 16.6364V15.1213C17.5007 14.4499 17.2773 13.7976 16.8659 13.267C16.4546 12.7363 15.8786 12.3573 15.2285 12.1895" stroke="#1B3A5A" stroke-width="1.2" stroke-linecap="round" stroke-linejoin="round"/>
<path d="M12.1973 3.09863C12.8491 3.26553 13.4268 3.64462 13.8394 4.17614C14.252 4.70766 14.4759 5.36138 14.4759 6.03424C14.4759 6.7071 14.252 7.36081 13.8394 7.89234C13.4268 8.42386 12.8491 8.80295 12.1973 8.96984" stroke="#1B3A5A" stroke-width="1.2" stroke-linecap="round" stroke-linejoin="round"/>
</svg>
