<svg width="20" height="21" viewBox="0 0 20 21" fill="none" xmlns="http://www.w3.org/2000/svg">
<path d="M12.9552 16.5874V15.0723C12.9552 14.2686 12.6359 13.4978 12.0676 12.9295C11.4993 12.3613 10.7286 12.042 9.92489 12.042H3.86429C3.0606 12.042 2.28983 12.3613 1.72154 12.9295C1.15325 13.4978 0.833984 14.2686 0.833984 15.0723V16.5874" stroke="#1B3A5A" stroke-width="1.2" stroke-linecap="round" stroke-linejoin="round"/>
<path d="M6.89554 9.01178C8.56913 9.01178 9.92584 7.65507 9.92584 5.98147C9.92584 4.30788 8.56913 2.95117 6.89554 2.95117C5.22195 2.95117 3.86523 4.30788 3.86523 5.98147C3.86523 7.65507 5.22195 9.01178 6.89554 9.01178Z" stroke="#1B3A5A" stroke-width="1.2" stroke-linecap="round" stroke-linejoin="round"/>
<path d="M17.5012 16.5876V15.0724C17.5007 14.401 17.2773 13.7488 16.8659 13.2181C16.4546 12.6875 15.8786 12.3085 15.2285 12.1406" stroke="#1B3A5A" stroke-width="1.2" stroke-linecap="round" stroke-linejoin="round"/>
<path d="M12.1973 3.0498C12.8491 3.2167 13.4268 3.59579 13.8394 4.12731C14.252 4.65883 14.4759 5.31255 14.4759 5.98541C14.4759 6.65827 14.252 7.31199 13.8394 7.84351C13.4268 8.37503 12.8491 8.75412 12.1973 8.92102" stroke="#1B3A5A" stroke-width="1.2" stroke-linecap="round" stroke-linejoin="round"/>
</svg>
